<?xml version="1.0" encoding="UTF-8"?>
<svg width="17px" height="30px" viewBox="0 0 17 30" version="1.1" xmlns="http://www.w3.org/2000/svg" xmlns:xlink="http://www.w3.org/1999/xlink">
    <!-- Generator: Sketch 40.3 (33839) - http://www.bohemiancoding.com/sketch -->
    <title>ic_alcohol</title>
    <desc>Created with Sketch.</desc>
    <defs></defs>
    <g id="Page-1" stroke="none" stroke-width="1" fill="none" fill-rule="evenodd">
        <g id="Rise" transform="translate(-808.000000, -988.000000)" fill="#000000">
            <g id="ic_alcohol" transform="translate(799.120000, 985.500000)">
                <g id="Imported-Layers-Copy-15" transform="translate(8.750000, 2.916667)">
                    <path d="M8.568,15.632283 C5.36016153,15.632283 2.76216316,13.7305608 2.76216316,11.4240477 L2.61632982,11.5721214 L2.76508518,11.4245333 C2.76919324,10.1526623 5.32477223,9.31363133 8.568,9.31363133 C11.8134929,9.31363133 14.367758,10.1524248 14.3704968,11.4243714 C14.3750895,13.730267 11.775809,15.632283 8.568,15.632283 Z M8.568,12.6717007 C11.190226,12.6717007 13.3427575,12.030556 13.5107667,11.4581076 C13.3353257,10.8181713 11.1736284,10.1815916 8.568,10.1815916 C5.94283703,10.1815916 3.79173811,10.8234294 3.62468807,11.3990869 C3.80155853,12.0358907 5.96474934,12.6717007 8.568,12.6717007 Z" id="Shape"></path>
                    <path d="M16.0243772,13.3528013 C14.7447656,15.7967235 12.1391545,17.3811823 9.12242272,17.5589976 L9.0193864,17.6698663 L9.0193864,24.7870333 L9.12516383,24.8980284 C12.0962053,24.9973074 14.2779338,25.8181378 14.2779338,27.0385941 C14.2779338,28.3453795 11.7678909,29.1877612 8.56632982,29.1877612 C5.36391918,29.1877612 2.85597851,28.3464574 2.85597851,27.0385941 C2.85597851,25.8165691 5.0338819,24.9973091 8.0087439,24.8980286 L8.11452588,24.7870333 L8.11452588,17.6733309 L8.01087302,17.5624277 C5.0197949,17.4033223 2.5131991,15.9633471 1.22369306,13.661411 C-0.361985537,10.8276894 -0.203778941,6.94672467 2.592315,1.88313328 C2.592315,1.88313328 2.7312008,1.60820351 2.85633678,1.49289138 C3.78573782,0.63645329 5.9582802,0.146509806 8.45693333,0.146509806 C11.275926,0.146509806 13.6863601,0.773293931 14.2580696,1.79074392 C14.3038858,1.85328919 14.3038858,1.85328919 14.3055302,1.85576427 C17.0251632,6.20534287 17.6306994,10.2851559 16.0243772,13.3528013 Z M8.45693333,1.0885069 C5.80448564,1.0885069 3.63751969,1.72320558 3.46770428,2.27420334 C3.64202427,2.87241906 5.82165576,3.50284692 8.45693333,3.50284692 C11.1051961,3.50284692 13.2757878,2.86683538 13.4461093,2.31732222 C13.2711446,1.71919165 11.0896475,1.0885069 8.45693333,1.0885069 L8.45693333,1.0885069 Z M13.3708744,26.9933153 C13.2211649,26.5142148 11.3877788,25.918082 9.13425778,25.8379882 L9.02105658,25.9489755 L9.03616587,27.1997734 C9.03616587,27.1997734 8.72140044,27.2151011 8.56632982,27.2151011 C8.41202869,27.2151011 8.11452576,27.2151011 8.11452576,27.2151011 L8.11452588,25.9489755 L8.00132467,25.8379882 C5.73563301,25.9185145 3.90668396,26.52077 3.76399297,27.0156174 C3.92870053,27.6132615 6.02847177,28.2457641 8.56632982,28.2457641 C11.1182079,28.2457641 13.2124114,27.6081763 13.37156,27.0582083 L13.3708744,26.9933153 Z M15.1870529,12.878864 C16.513189,10.3431232 16.1001759,6.95993088 14.0305193,3.27784579 L13.8674853,3.24594307 C12.9279948,4.00388279 10.7995229,4.44657631 8.45860351,4.44657631 C6.15450743,4.44657631 4.0524216,4.01587889 3.09159009,3.27643532 L2.92788499,3.31489123 C0.984076995,7.22430849 0.668812468,10.6940486 2.04983944,13.1605672 C3.24389933,15.3041192 5.68456671,16.5847663 8.5613193,16.5847663 C11.452184,16.5847663 13.9938317,15.1662152 15.1871064,12.8787616 L15.1870529,12.878864 Z" id="Shape"></path>
                </g>
            </g>
        </g>
    </g>
</svg>