<?xml version="1.0" encoding="UTF-8"?>
<svg width="29px" height="27px" viewBox="0 0 29 27" version="1.1" xmlns="http://www.w3.org/2000/svg" xmlns:xlink="http://www.w3.org/1999/xlink">
    <!-- Generator: Sketch 40.3 (33839) - http://www.bohemiancoding.com/sketch -->
    <title>ic_dine</title>
    <desc>Created with Sketch.</desc>
    <defs></defs>
    <g id="Page-1" stroke="none" stroke-width="1" fill="none" fill-rule="evenodd">
        <g id="Rise" transform="translate(-562.000000, -990.000000)" fill="#000000">
            <g id="ic_dine" transform="translate(559.760000, 985.500000)">
                <g id="Imported-Layers" transform="translate(2.916667, 4.375000)">
                    <path d="M19.8445679,26.2819753 L20.3626543,25.7638889 C20.4266049,25.6999383 20.4266049,25.6018519 20.3626543,25.5379012 L9.11814815,14.2912346 C9.11814815,14.2912346 9.11814815,14.2912346 9.08574074,14.2912346 L8.37364198,15.0037654 C8.37364198,15.0037654 8.37364198,15.0037654 8.37364198,15.0357407 L19.6181481,26.2802469 C19.7145062,26.3139506 19.8125926,26.3139506 19.8445679,26.2819753 L19.8445679,26.2819753 Z" id="Fill-1"></path>
                    <path d="M19.7464815,26.8000617 C19.5844444,26.8000617 19.4224074,26.7361111 19.2923457,26.6060494 L8.04783951,15.3615432 C7.94975309,15.2634568 7.91777778,15.1351235 7.88580247,15.0054938 C7.88580247,14.8754321 7.94975309,14.7453704 8.04783951,14.6490123 L8.75993827,13.9369136 C8.95438272,13.7429012 9.27845679,13.7429012 9.47246914,13.9369136 L20.7169753,25.1814198 C20.9770988,25.4415432 20.9770988,25.8295679 20.7169753,26.0896914 L20.2006173,26.6060494 C20.0705556,26.7361111 19.9085185,26.8000617 19.7464815,26.8000617 L19.7464815,26.8000617 Z M9.08401235,15.0054938 L19.7464815,25.6675309 L19.7784568,25.6355556 L9.11814815,14.971358 L9.08401235,15.0054938 Z" id="Fill-2"></path>
                    <path d="M9.11814815,1.49030864 L9.73388889,0.874135802 C9.7982716,0.810185185 9.92833333,0.810185185 9.99401235,0.874135802 L17.8357407,8.7162963 L16.9598765,9.59216049 L9.11814815,1.7504321 C9.05203704,1.65234568 9.05203704,1.55641975 9.11814815,1.49030864 L9.11814815,1.49030864 Z" id="Fill-3"></path>
                    <path d="M16.9598765,10.0782716 C16.8298148,10.0782716 16.6997531,10.0462963 16.6038272,9.94820988 L8.75993827,2.07450617 C8.63030864,1.94444444 8.56592593,1.78240741 8.56592593,1.58839506 C8.56592593,1.39438272 8.63030864,1.23234568 8.75993827,1.10228395 L9.37611111,0.486111111 C9.63623457,0.225987654 10.088642,0.225987654 10.316358,0.486111111 L18.1580864,8.32783951 C18.3525309,8.52228395 18.3525309,8.81395062 18.1580864,9.00839506 L17.2839506,9.88253086 C17.22,10.014321 17.0899383,10.0782716 16.9598765,10.0782716 L16.9598765,10.0782716 Z M9.66820988,1.62037037 L16.9598765,8.91203704 L17.1538889,8.71802469 L9.86222222,1.42635802 L9.66820988,1.62037037 Z" id="Fill-4"></path>
                    <path d="M26.7460494,19.4764198 C26.3580247,19.4764198 26.0002469,19.3143827 25.7098765,19.022284 L16.7338889,10.0462963 C16.6358025,9.94820988 16.6038272,9.82030864 16.6038272,9.69024691 C16.6038272,9.56018519 16.6677778,9.43012346 16.7338889,9.33419753 L18.5162963,7.55179012 C18.8723457,7.19530864 19.5524691,7.19530864 19.9102469,7.55179012 C19.9422222,7.58376543 22.2107407,10.014321 24.2852469,12.5425309 C28.4342593,17.565679 28.2722222,18.5059259 27.7524074,18.992037 C27.492284,19.3143827 27.1362346,19.4764198 26.7460494,19.4764198 L26.7460494,19.4764198 Z M17.7700617,9.72222222 L26.4219753,18.3741358 C26.6164198,18.5685802 26.8441358,18.6005556 27.0701235,18.4065432 C27.1025309,17.4982716 23.6353704,12.9949383 19.2283951,8.2958642 L17.7700617,9.72222222 Z" id="Fill-5"></path>
                    <path d="M6.94555556,16.5917284 L6.88160494,16.5917284 C6.52555556,16.5597531 6.16907407,16.4296914 5.90938272,16.1380247 L0.171975309,10.434321 C-0.022037037,10.2403086 -0.022037037,9.94820988 0.171975309,9.75419753 C0.366419753,9.56018519 0.65808642,9.56018519 0.852530864,9.75419753 L6.55580247,15.4574691 C6.65345679,15.5555556 6.78179012,15.6195062 6.91185185,15.6195062 C6.97623457,15.6195062 7.1058642,15.6195062 7.17197531,15.5218519 L9.60253086,13.0912963 C9.70018519,12.9932099 9.70018519,12.897284 9.70018519,12.8311728 C9.70018519,12.7015432 9.63623457,12.5714815 9.53814815,12.4751235 L3.83487654,6.74160494 C3.6408642,6.54716049 3.6408642,6.25549383 3.83487654,6.06104938 C4.02888889,5.86703704 4.32098765,5.86703704 4.515,6.06104938 L10.2182716,11.7647531 C10.4783951,12.0244444 10.6404321,12.3804938 10.6724074,12.7369753 C10.7043827,13.125 10.5423457,13.4827778 10.2843827,13.7411728 L7.88580247,16.2037037 C7.62567901,16.4638272 7.30160494,16.5917284 6.94555556,16.5917284 L6.94555556,16.5917284 Z" id="Fill-6"></path>
                    <path d="M8.75993827,15.1333951 C8.63030864,15.1333951 8.50024691,15.1014198 8.40388889,15.0037654 L2.02049383,8.61993827 C1.82648148,8.42592593 1.82648148,8.13382716 2.02049383,7.93981481 C2.21450617,7.74580247 2.50660494,7.74580247 2.70061728,7.93981481 L9.08401235,14.3232099 C9.27845679,14.5176543 9.27845679,14.809321 9.08401235,15.0037654 C8.98808642,15.1014198 8.85802469,15.1333951 8.75993827,15.1333951 L8.75993827,15.1333951 Z" id="Fill-7"></path>
                </g>
            </g>
        </g>
    </g>
</svg>