<?xml version="1.0" encoding="UTF-8"?>
<svg width="30px" height="21px" viewBox="0 0 30 21" version="1.1" xmlns="http://www.w3.org/2000/svg" xmlns:xlink="http://www.w3.org/1999/xlink">
    <!-- Generator: Sketch 40.3 (33839) - http://www.bohemiancoding.com/sketch -->
    <title>ic_delivery</title>
    <desc>Created with Sketch.</desc>
    <defs></defs>
    <g id="Page-1" stroke="none" stroke-width="1" fill="none" fill-rule="evenodd">
        <g id="Rise" transform="translate(-672.000000, -992.000000)" fill="#000000">
            <g id="ic_delivery" transform="translate(669.440000, 985.500000)">
                <g id="Imported-Layers" transform="translate(2.916667, 7.291667)">
                    <path d="M6.94426844,19.8681389 C5.09592098,19.8681389 3.58839986,18.3876453 3.58839986,16.3450216 L4.5610778,16.3450216 C4.5610778,17.876717 5.63076415,18.8468271 6.94426844,18.8468271 C8.25725397,18.8468271 9.27869549,17.876717 9.27869549,16.3450216 L10.2508547,16.3450216 C10.2508547,18.3876453 8.79209714,19.8681389 6.94426844,19.8681389 L6.94426844,19.8681389 Z" id="Fill-1"></path>
                    <path d="M18.5188765,15.8340933 L0.0379956997,15.8340933 L0.0379956997,15.323165 C0.0379956997,11.9019066 1.5942804,9.80862584 2.71273034,8.68491047 L0.524075288,8.68491047 L0.524075288,5.11004669 L14.9684724,5.11004669 L14.1415664,8.68491047 L11.9046665,8.68491047 C11.8071394,9.60381877 11.710131,11.9019066 13.3151792,13.1274808 L12.7315725,13.9445302 C10.2508547,11.9531083 10.9807522,8.22518397 11.028997,8.07212337 L11.1265242,7.66359863 L13.4121877,7.66359863 L13.7524952,6.13190323 L1.49727199,6.13190323 L1.49727199,7.66359863 L5.92282692,7.66359863 L4.31777863,8.6337087 C4.17200663,8.68491047 1.35098123,10.47207 1.15644564,14.8127815 L18.5188765,14.8127815 L18.5188765,15.8340933 Z" id="Fill-2"></path>
                    <polygon id="Fill-3" points="20.5109209 0.0290884021 23.3578844 11.3871654 22.4178885 11.6464424 19.5704062 0.288910133"></polygon>
                    <polygon id="Fill-4" points="16.5735207 0.00403221841 19.9776341 0.00403221841 19.9776341 1.02534405 16.5735207 1.02534405"></polygon>
                    <path d="M20.9508308,5.62097496 L20.9508308,4.59966313 L22.3120611,4.59966313 C22.4095883,4.59966313 22.9444315,4.49780429 22.9444315,3.32288716 C22.9444315,2.14851472 22.4095883,2.04665589 22.3120611,2.04665589 L20.4642324,2.04665589 L20.4642324,1.02479935 L22.3120611,1.02479935 C22.3608247,1.02479935 22.8961866,1.02479935 23.3335026,1.48452585 C23.7225738,1.89305059 23.9171094,2.50583769 23.9171094,3.32288716 C23.9171094,4.13993663 23.7225738,4.75272373 23.3335026,5.16124846 C22.8961866,5.62097496 22.4095883,5.62097496 22.3120611,5.62097496 L20.9508308,5.62097496 Z" id="Fill-5"></path>
                    <path d="M24.0146366,19.8681389 C22.1662891,19.8681389 20.658768,18.3876453 20.658768,16.3450216 L21.6314459,16.3450216 C21.6314459,17.876717 22.7011323,18.8468271 24.0146366,18.8468271 C25.3276221,18.8468271 26.3978272,17.876717 26.3978272,16.3450216 L27.3699864,16.3450216 C27.3699864,18.3876453 25.8624653,19.8681389 24.0146366,19.8681389 L24.0146366,19.8681389 Z" id="Fill-6"></path>
                    <path d="M29.1695703,15.8340933 L18.3243409,15.8340933 L18.4213494,15.2213062 C18.4213494,15.1701044 19.1024833,11.1872606 24.0146366,11.1872606 C28.3431831,11.1872606 29.0237983,15.1701044 29.0725618,15.2213062 L29.1695703,15.8340933 Z M19.5885629,14.8127815 L27.9541119,14.8127815 C27.6132856,13.8938732 26.6406076,12.2597742 24.0634002,12.2597742 C21.0478392,12.2597742 19.9293892,13.8938732 19.5885629,14.8127815 L19.5885629,14.8127815 Z" id="Fill-9"></path>
                </g>
            </g>
        </g>
    </g>
</svg>