<?xml version="1.0" encoding="UTF-8"?>
<svg width="32px" height="32px" viewBox="0 0 32 32" version="1.1" xmlns="http://www.w3.org/2000/svg" xmlns:xlink="http://www.w3.org/1999/xlink">
    <!-- Generator: Sketch 40.3 (33839) - http://www.bohemiancoding.com/sketch -->
    <title>Group 11</title>
    <desc>Created with Sketch.</desc>
    <defs>
        <rect id="path-1" x="0" y="0" width="32" height="32"></rect>
        <mask id="mask-2" maskContentUnits="userSpaceOnUse" maskUnits="objectBoundingBox" x="0" y="0" width="32" height="32" fill="white">
            <use xlink:href="#path-1"></use>
        </mask>
    </defs>
    <g id="Page-1" stroke="none" stroke-width="1" fill="none" fill-rule="evenodd">
        <g id="Rise" transform="translate(-1041.000000, -3695.000000)">
            <g id="Group-10" transform="translate(159.000000, 3625.000000)">
                <g id="Group-14" transform="translate(837.000000, 70.000000)">
                    <g id="Group-11" transform="translate(45.000000, 0.000000)">
                        <path d="M21.0348837,16.5 C21.0348837,19.0048256 19.0041279,21.0348837 16.5,21.0348837 C13.995,21.0348837 11.9651163,19.0048256 11.9651163,16.5 C11.9651163,16.2015698 11.9947674,15.9101163 12.0495349,15.627907 L9,15.627907 L9,21.6561628 C9,22.9506977 10.0484302,24 11.3436628,24 L21.6561628,24 C22.95,24 24,22.9506977 24,21.6561628 L24,15.627907 L20.9499419,15.627907 C21.0052326,15.9101163 21.0348837,16.2015698 21.0348837,16.5 L21.0348837,16.5 Z M21.6561628,9 L11.3436628,9 C10.0484302,9 9,10.0494767 9,11.3438372 L9,13.8837209 L12.7965698,13.8837209 C13.617907,12.7231395 14.97,11.9651163 16.5,11.9651163 C18.0294767,11.9651163 19.3815698,12.7231395 20.2025581,13.8837209 L24,13.8837209 L24,11.3438372 C24,10.0494767 22.95,9 21.6561628,9 L21.6561628,9 Z M22.8019186,11.8951744 C22.8019186,12.1255814 22.6137209,12.3139535 22.3834884,12.3139535 L21.1275,12.3139535 C20.8976163,12.3139535 20.7088953,12.1255814 20.7088953,11.8951744 L20.7088953,10.6395349 C20.7088953,10.4091279 20.8976163,10.2209302 21.1275,10.2209302 L22.3834884,10.2209302 C22.6137209,10.2209302 22.8019186,10.4091279 22.8019186,10.6395349 L22.8019186,11.8951744 L22.8019186,11.8951744 Z M19.2906977,16.5 C19.2906977,14.9586628 18.0411628,13.7093023 16.5,13.7093023 C14.9584884,13.7093023 13.7093023,14.9586628 13.7093023,16.5 C13.7093023,18.0413372 14.9584884,19.2906977 16.5,19.2906977 C18.0411628,19.2906977 19.2906977,18.0413372 19.2906977,16.5 L19.2906977,16.5 Z" id="Imported-Layers" fill="#000000"></path>
                        <use id="Rectangle-16" stroke="#000000" mask="url(#mask-2)" stroke-width="2" xlink:href="#path-1"></use>
                    </g>
                </g>
            </g>
        </g>
    </g>
</svg>