<?xml version="1.0" encoding="UTF-8"?>
<svg width="30px" height="28px" viewBox="0 0 30 28" version="1.1" xmlns="http://www.w3.org/2000/svg" xmlns:xlink="http://www.w3.org/1999/xlink">
    <!-- Generator: Sketch 40.3 (33839) - http://www.bohemiancoding.com/sketch -->
    <title>ic_kid</title>
    <desc>Created with Sketch.</desc>
    <defs></defs>
    <g id="Page-1" stroke="none" stroke-width="1" fill="none" fill-rule="evenodd">
        <g id="Rise" transform="translate(-324.000000, -988.000000)" fill="#000000">
            <g id="Group-23" transform="translate(307.000000, 984.000000)">
                <g id="Kid-friendly-+-ic_kid" transform="translate(0.400000, 1.500000)">
                    <g id="ic_kid" transform="translate(14.000000, 0.000000)">
                        <g id="Imported-Layers-Copy-14" transform="translate(2.916667, 2.916667)">
                            <g id="Fill-1-+-Fill-2-+-Fill-3" transform="translate(7.291667, 11.666667)">
                                <path d="M12.6306228,6.63727579 C12.7341123,6.3618825 13.0276332,6.22752996 13.2896574,6.33111264 C13.5537602,6.43825638 13.6851996,6.74645923 13.5810412,7.02947585 C12.5026438,9.92255729 9.76137095,11.8678012 6.76463944,11.8678012 C3.88154867,11.8678012 1.25989911,10.1046597 0.085064273,7.37426838 C-0.0313973689,7.10350728 0.0864353553,6.78646175 0.344635617,6.66654956 C0.600834256,6.54877488 0.901413686,6.66834832 1.01747554,6.93598621 C2.02553226,9.28032858 4.28232454,10.7973142 6.76463944,10.7973142 C9.34421359,10.7973142 11.7025618,9.12406545 12.630739,6.63696538 L12.6306228,6.63727579 Z" id="Shape"></path>
                                <path d="M3.93083642,1.55568844 C3.93083642,3.34884154 1.33137933,3.34884154 1.33137933,1.55568844 C1.33137933,-0.236766116 3.93083642,-0.236766116 3.93083642,1.55568844" id="Fill-2"></path>
                                <path d="M12.5511824,1.55568844 C12.5511824,3.34884154 9.95442534,3.34884154 9.95442534,1.55568844 C9.95442534,-0.236766116 12.5511824,-0.236766116 12.5511824,1.55568844" id="Fill-3"></path>
                            </g>
                            <path d="M26.6837544,12.5283413 C28.051777,12.5283413 29.045452,13.6596257 29.0428772,15.2337111 C29.042877,16.8116125 28.0485278,17.9451464 26.6810543,17.9451464 C26.4791647,17.9451464 26.2800235,17.9151706 26.0825577,17.8556513 L25.89766,17.9657458 C24.7596402,23.4686451 20.034897,27.4739354 14.5390045,27.4739354 C9.05524685,27.4739354 4.33757236,23.4832449 3.18837485,17.9954265 L3.00990879,17.8839281 C2.84343287,17.9259963 2.6733147,17.9479406 2.50765595,17.9479406 C1.13972478,17.9479406 0.145833333,16.8159226 0.145833333,15.2367438 C0.145833333,13.659357 1.14061312,12.5255471 2.50765595,12.5255471 C2.70280331,12.5255471 2.90007341,12.5551099 3.09406406,12.612468 L3.27709683,12.5071631 C4.37411296,8.00765656 7.918557,4.53009172 12.3266433,3.64634952 L12.4317033,3.44518417 C12.0558035,2.5811399 12.1908833,1.60665913 12.7073658,0.910665874 C13.2583719,0.165948195 14.1155529,-0.0609361637 14.7933491,0.345954056 C15.0395434,0.493341387 15.1246142,0.82126017 14.9814172,1.07742352 C14.8389545,1.3313289 14.5296835,1.41729832 14.2872079,1.27213741 C13.9908244,1.09222585 13.7094297,1.29375937 13.513495,1.56555122 C13.1532279,2.04909938 13.1131691,2.77576119 13.6011144,3.40226863 C14.0284888,3.43662698 14.2900106,3.42566186 14.5417045,3.42566186 C19.8949457,3.42566186 24.531462,7.22785055 25.8116213,12.5396192 L25.9998476,12.6436883 C26.2263822,12.5675653 26.4555427,12.5283413 26.6837544,12.5283413 L26.6837544,12.5283413 Z M2.51035599,16.885836 C2.63594294,16.885836 2.76563343,16.8620439 2.8913374,16.8173268 L2.98758912,16.6656131 C2.94772606,16.2614758 2.92754267,15.8570272 2.92754267,15.4525928 C2.92754267,14.926331 2.9638566,14.3919757 3.03437149,13.8392582 L2.9470721,13.6867241 C2.80492338,13.62591 2.65615218,13.59324 2.51035599,13.59324 C1.69405882,13.59324 1.16705787,14.2536494 1.16705787,15.239538 C1.16705787,16.2254267 1.69405882,16.885836 2.51035599,16.885836 L2.51035599,16.885836 Z M25.1393668,15.455387 C25.1393668,9.5930209 20.6570381,4.76194195 15.0120205,4.50677576 L14.8980343,4.75111326 C15.4556562,5.35818213 15.6941205,5.79946848 15.6986428,6.31835295 C15.702271,6.87356288 15.4176351,7.362328 14.9033588,7.89353994 C14.8053086,7.99500827 14.6787122,8.04822662 14.5444045,8.04822662 C14.4100964,8.04822662 14.2833215,7.9949903 14.184605,7.89336443 C13.9836581,7.6854114 13.9836581,7.34404751 14.1848698,7.13582115 C14.5328522,6.77323367 14.6767377,6.51314961 14.6767377,6.32476595 C14.6738786,6.02965866 14.4402884,5.75521941 13.5691403,4.87933178 C13.5045168,4.81243351 13.4480518,4.75541375 13.3185755,4.62562438 C7.93899433,5.2765027 3.94674218,9.92858961 3.94674218,15.4525928 C3.94674218,21.4940793 8.69882743,26.4118309 14.5417045,26.4118309 C20.3864332,26.4118309 25.1393668,21.4949556 25.1393668,15.455387 Z M26.6837544,16.885836 C27.4993171,16.885836 28.0270525,16.2262751 28.0270525,15.2451263 C28.0270525,14.2591004 27.4999561,13.5981298 26.6837544,13.5981298 C26.4921837,13.5981298 26.3016065,13.6488203 26.129722,13.7453364 L26.0564635,13.8909569 C26.1240148,14.4202475 26.1585664,14.9393983 26.1585664,15.455387 C26.1585664,15.8435733 26.1401288,16.2343731 26.103856,16.6201736 L26.1838733,16.7642833 C26.3430752,16.8438188 26.5131692,16.885836 26.6837544,16.885836 Z" id="Shape"></path>
                        </g>
                    </g>
                </g>
            </g>
        </g>
    </g>
</svg>