<?xml version="1.0" encoding="UTF-8"?>
<svg width="31px" height="29px" viewBox="0 0 31 29" version="1.1" xmlns="http://www.w3.org/2000/svg" xmlns:xlink="http://www.w3.org/1999/xlink">
    <!-- Generator: Sketch 40.3 (33839) - http://www.bohemiancoding.com/sketch -->
    <title>ic_veggie</title>
    <desc>Created with Sketch.</desc>
    <defs></defs>
    <g id="Page-1" stroke="none" stroke-width="1" fill="none" fill-rule="evenodd">
        <g id="Rise" transform="translate(-446.000000, -986.000000)" fill="#000000">
            <g id="Group-23" transform="translate(307.000000, 984.000000)">
                <g id="Veggie-options-+-ic_veggie" transform="translate(115.000000, 0.000000)">
                    <g id="ic_veggie" transform="translate(22.000000, 0.000000)">
                        <g id="Imported-Layers-Copy-13" transform="translate(2.916667, 2.916667)">
                            <path d="M27.6771481,27.7013964 C27.224117,27.7013964 26.7816093,27.5430055 26.5021365,27.3804364 C26.3948139,27.3085795 25.0814457,26.4223661 23.8234131,25.5719033 C21.8654383,24.2482613 19.8394271,22.8754854 17.889683,21.5502029 C12.3664648,17.7959543 8.47821574,15.118975 7.14983523,14.1370096 C6.33927378,13.5376993 5.90876726,12.777886 5.86839728,11.8779402 C5.823437,10.8954051 6.26243823,9.8260685 7.04064806,8.73886358 C7.53852892,8.04329474 8.0767006,7.46717382 8.51988333,7.06255375 C8.91033046,6.63448718 9.47199658,6.10787058 10.146316,5.6182672 C11.1988285,4.85406906 12.2389215,4.40369964 13.2010572,4.40369964 C14.1490053,4.40369964 14.9775823,4.8468146 15.5990392,5.68778922 C16.4862839,6.8869438 18.7640631,10.1864119 22.0080322,14.9501002 C22.0595082,15.0256941 22.0595082,15.0256941 22.1109808,15.1012933 C23.572419,17.2478193 25.1299205,19.5445167 26.6960018,21.8599453 C27.6128879,23.2155481 28.9040256,25.1279043 28.8205701,25.0049485 C29.2619419,25.7794066 29.3217636,26.6995557 28.7407013,27.280618 C28.4652842,27.5560351 28.0982516,27.7013964 27.6771481,27.7013964 L27.6771481,27.7013964 Z M13.2010572,5.47802833 C11.9826814,5.47802833 10.357969,6.61618204 9.30381956,7.79766863 C9.28302539,7.81981682 9.28302539,7.81981682 9.26043312,7.84101047 C8.03583264,8.93815218 6.88597153,10.604422 6.94287846,11.8295377 C6.97018241,12.399662 7.24890932,12.8725041 7.79060223,13.2723251 C9.11162686,14.2488388 12.9867422,16.9169086 18.5002173,20.665056 C20.4416827,21.9848949 22.4573353,23.3508887 24.412308,24.6727832 C25.6460433,25.5069984 26.9572248,26.3919969 27.0687785,26.4666355 C27.2376231,26.5495765 27.4749136,26.6255051 27.6787108,26.6255051 C27.8243648,26.6255051 27.9140302,26.5885126 27.983657,26.5188858 C28.1804141,26.3206389 28.0790114,25.8694288 27.9072588,25.5671441 C27.9994119,25.6972713 23.6502476,19.2683913 21.2236654,15.704025 C21.1733855,15.6301721 21.1733855,15.6301721 21.1231024,15.5563241 C17.8824497,10.7971232 15.6183238,7.51673495 14.7370505,6.32537832 C14.3148557,5.75787701 13.8095174,5.47802833 13.2010572,5.47802833 L13.2010572,5.47802833 Z" id="Shape"></path>
                            <path d="M8.52908916,7.16807352 C8.36893207,7.16807352 8.21747863,7.09789002 8.11422179,6.97183622 C6.78233459,5.35002715 5.05070982,3.98194995 3.11429029,2.85944283 C1.94524665,2.18176954 0.854212788,1.68600571 0.356896547,1.51072211 C0.0789915846,1.40906919 -0.0638546583,1.10029582 0.0383716368,0.822185224 C0.140260626,0.543277404 0.449957121,0.400045439 0.727157601,0.502316921 C2.34769301,1.0972962 4.63011379,2.2894339 6.79678497,4.12617012 C6.59929098,2.6396882 6.70209871,1.34635359 7.34802472,0.269695828 C7.50132909,0.0146468928 7.83018694,-0.067302532 8.08551405,0.0858249111 C8.34055348,0.239123586 8.4225029,0.567981433 8.26937546,0.82330854 C7.9570973,1.34321247 7.81296859,1.94642104 7.81563496,2.61535947 C7.81888949,3.4318553 8.03735462,4.30367239 8.3992298,5.17545978 C8.5251497,5.47881129 8.66000021,5.76096289 8.79530626,6.01542549 C8.87721382,6.16946451 8.94117146,6.28013417 8.98176276,6.34616884 C9.13324032,6.58795177 9.07149669,6.90357682 8.84179182,7.06897808 C8.74975249,7.13336365 8.6393446,7.16807352 8.52908916,7.16807352 L8.52908916,7.16807352 Z" id="Shape"></path>
                            <path d="M8.22467917,8.05891907 C8.12666374,8.05891907 8.03156787,8.03035786 7.94778022,7.97429177 C5.39880103,6.25696017 3.2743211,6.58303193 2.19894457,7.46761585 C1.98425275,7.63523723 1.67234116,7.5969478 1.5020767,7.38085515 C1.33350207,7.16497699 1.37196835,6.85213102 1.58812219,6.68302243 C1.97728751,6.37809719 2.66572452,6.03475288 3.58913079,5.87595031 C5.09711085,5.61661581 6.74996659,5.96891043 8.50283616,7.15027411 C8.73038007,7.304304 8.79056221,7.61228342 8.63700834,7.83912437 C8.54384744,7.97809072 8.38851493,8.05891907 8.22467917,8.05891907 L8.22467917,8.05891907 Z" id="Shape"></path>
                            <path d="M12.2630372,11.7909954 C12.1696375,11.7909954 12.0759959,11.7658656 11.9915532,11.7168889 C11.7359996,11.5665819 11.6492107,11.2388663 11.7980864,10.984337 C12.5834039,9.63397439 14.0214602,8.07564923 15.9840309,7.36586401 C16.2634017,7.26505659 16.570905,7.40898296 16.6715473,7.68789609 C16.7720181,7.96763205 16.628089,8.27480831 16.3491426,8.37546259 C15.3729792,8.72880841 14.4875199,9.39133629 13.7074862,10.2439369 C13.4339935,10.5428728 13.1928527,10.8447617 12.9860408,11.1348622 C12.8603789,11.3111314 12.7752228,11.44279 12.7262642,11.524889 C12.6291544,11.6915504 12.4520476,11.7909954 12.2630372,11.7909954 L12.2630372,11.7909954 Z" id="Shape"></path>
                            <path d="M14.9134237,14.1184016 C14.664578,13.9722965 14.5813544,13.654833 14.7269022,13.4077014 C15.3823557,12.2827404 16.5733621,10.9931842 18.2058324,10.4036337 C18.4770457,10.3058902 18.774901,10.4453491 18.8725189,10.7158807 C18.9702691,10.9871123 18.8308102,11.2849677 18.5602786,11.3825856 C17.2056573,11.8724315 16.0489208,13.1368123 15.6256807,13.9362658 C15.5318884,14.0935795 15.3591646,14.1900691 15.1763412,14.1900691 C15.085373,14.1900691 14.9958268,14.1658628 14.912897,14.1180953 L14.9134237,14.1184016 Z" id="Shape"></path>
                            <path d="M18.4474248,17.4606868 C18.1919064,17.330259 18.087831,17.0190336 18.2155902,16.7621809 C18.2506156,16.6917966 19.0938929,15.0422687 20.8164737,14.6019498 C21.0953424,14.5302312 21.3792146,14.698353 21.4509332,14.9772216 C21.5226518,15.2560902 21.3545301,15.5399625 21.0756614,15.6116811 C19.8207527,15.9322466 19.1536028,17.2171771 19.1472649,17.2301865 C19.0558654,17.4113177 18.8723992,17.5153931 18.6819279,17.5153931 C18.6038714,17.5153931 18.5231463,17.4970464 18.4474248,17.4606868 Z" id="Fill-6"></path>
                        </g>
                    </g>
                </g>
            </g>
        </g>
    </g>
</svg>