<?xml version="1.0" encoding="UTF-8"?>
<svg width="30px" height="26px" viewBox="0 0 30 26" version="1.1" xmlns="http://www.w3.org/2000/svg" xmlns:xlink="http://www.w3.org/1999/xlink">
    <!-- Generator: Sketch 40.3 (33839) - http://www.bohemiancoding.com/sketch -->
    <title>ic_wifi</title>
    <desc>Created with Sketch.</desc>
    <defs></defs>
    <g id="Page-1" stroke="none" stroke-width="1" fill="none" fill-rule="evenodd">
        <g id="Rise" transform="translate(-927.000000, -991.000000)" fill="#000000">
            <g id="ic_wifi" transform="translate(924.800000, 985.500000)">
                <g id="Group" transform="translate(2.916667, 5.833333)">
                    <path d="M1.07653196,7.3261048 C0.860385663,7.5690431 0.471143495,7.56607655 0.208793867,7.3071992 C-0.0529448554,7.04661882 -0.0526174122,6.64667389 0.210901263,6.38276482 C4.06048398,2.53318225 9.14232834,0.429232733 14.5920291,0.429232733 C20.0417543,0.429232733 25.1235915,2.53319948 28.973367,6.38297502 C29.2373923,6.64544021 29.2373923,7.04505869 28.973367,7.30908395 C28.8221194,7.46033154 28.6927376,7.51717152 28.5106239,7.51717152 C28.3567766,7.51717152 28.1745903,7.43599236 28.0467854,7.30861201 C24.3944482,3.70622015 19.6136985,1.72792779 14.5459493,1.72792779 C9.44086736,1.72792779 4.63596185,3.71845303 1.09071474,7.3109701 L1.07910395,7.32328813 L1.07653196,7.3261048 Z" id="Shape"></path>
                    <path d="M23.6093507,12.4209356 C23.4564883,12.4209356 23.2868228,12.3546541 23.1925329,12.2587927 C20.8800258,9.94626611 17.8383428,8.68224359 14.5920291,8.68224359 C11.3918895,8.68224359 8.33689715,9.96194376 6.04301472,12.2564773 C5.78058668,12.5204654 5.3809682,12.5204591 5.11694607,12.256437 C4.8529208,11.9939718 4.8529208,11.5943533 5.11694607,11.3303281 C7.66351808,8.78375607 11.020876,7.38603933 14.5945199,7.38603933 C18.1517725,7.38603933 21.5148888,8.77218421 24.0744898,11.289115 C24.3363048,11.5493882 24.3359326,11.9490092 24.0720938,12.212848 C23.9208462,12.3640956 23.7914644,12.4209356 23.6093507,12.4209356 L23.6093507,12.4209356 Z" id="Shape"></path>
                    <path d="M18.7055866,17.3246996 C18.5227059,17.3246996 18.3756302,17.2691279 18.2040671,17.1325128 C17.2702765,16.1923042 15.9488105,15.6440318 14.5920291,15.6440318 C13.2333307,15.6440318 11.9147875,16.1940441 10.9467195,17.1627914 C10.6843461,17.4267248 10.2847276,17.4267094 10.0207101,17.1626919 C9.75668485,16.9002267 9.75668485,16.5006082 10.0207101,16.2365829 C11.2434871,15.0143877 12.8635456,14.3453367 14.5945199,14.3453367 C16.325502,14.3453367 17.9455582,15.0143931 19.1683973,16.2366505 C19.4323602,16.4990534 19.4323498,16.8986718 19.1683297,17.1626919 C19.0301006,17.2708436 18.882981,17.3246996 18.7055866,17.3246996 L18.7055866,17.3246996 Z" id="Shape"></path>
                    <path d="M12.594468,23.2843806 C12.594468,20.615569 16.5945719,20.615569 16.5945719,23.2843806 C16.5945719,25.9500787 12.594468,25.9500787 12.594468,23.2843806 L12.594468,23.2843806 Z" id="Shape"></path>
                </g>
            </g>
        </g>
    </g>
</svg>