<?xml version="1.0" encoding="UTF-8"?>
<svg width="32px" height="32px" viewBox="0 0 32 32" version="1.1" xmlns="http://www.w3.org/2000/svg" xmlns:xlink="http://www.w3.org/1999/xlink">
    <!-- Generator: Sketch 40.3 (33839) - http://www.bohemiancoding.com/sketch -->
    <title>Group 11</title>
    <desc>Created with Sketch.</desc>
    <defs>
        <rect id="path-1" x="0" y="0" width="32" height="32"></rect>
        <mask id="mask-2" maskContentUnits="userSpaceOnUse" maskUnits="objectBoundingBox" x="0" y="0" width="32" height="32" fill="white">
            <use xlink:href="#path-1"></use>
        </mask>
    </defs>
    <g id="Page-1" stroke="none" stroke-width="1" fill="none" fill-rule="evenodd">
        <g id="Rise" transform="translate(-996.000000, -3695.000000)">
            <g id="Group-10" transform="translate(159.000000, 3625.000000)">
                <g id="Group-14" transform="translate(837.000000, 70.000000)">
                    <g id="Group-11">
                        <use id="Rectangle-16" stroke="#000000" mask="url(#mask-2)" stroke-width="2" xlink:href="#path-1"></use>
                        <g id="yelp-logo" transform="translate(10.000000, 8.000000)" fill="#000000">
                            <g id="Capa_1">
                                <path d="M2.03910559,0.730099379 C2.84754037,0.0946583851 4.40183851,-0.0874658385 5.04137888,0.0365590062 C5.68151553,0.159801242 6.01580124,0.517826087 6.01990062,0.953776398 L6.05679503,6.51234783 C6.0596646,6.94889441 5.83304348,7.35014907 5.55275776,7.40418634 C5.27098137,7.45703106 4.85634783,7.19757764 4.62842236,6.82621118 L1.71197516,2.05993789 C1.48576398,1.68808696 1.02980124,1.52407453 2.03910559,0.730099379 L2.03910559,0.730099379 Z M1.07075776,11.2997888 L4.00695652,10.2607453 C4.4161118,10.1156646 4.78255901,9.71198758 4.82373913,9.36119255 C4.86346584,9.01054658 4.56603727,8.59416149 4.16262112,8.43450932 L1.06095652,7.20465839 C0.657242236,7.04508075 0.191478261,7.42352795 0.0686086957,8.04279503 C0.0686086957,8.04279503 -0.00514285714,10.1993292 0.0686086957,10.6458261 C0.143217391,11.0919503 0.661677019,11.4455404 1.07075776,11.2997888 L1.07075776,11.2997888 Z M6.1924472,11.8189938 C6.2010559,11.3812174 5.96735404,11.0036273 5.67309317,10.976646 C5.3787205,10.9493292 4.9113913,11.2005093 4.63229814,11.5339006 L2.58413665,13.9899503 C2.30522981,14.3237143 2.44378882,15.1075901 2.85026087,15.2559876 L4.99192547,15.9998758 C5.39959006,16.1481988 6.11750311,15.7092298 6.12585093,15.2728323 L6.1924472,11.8189938 L6.1924472,11.8189938 Z M11.283764,11.2472795 L8.71554037,10.5089441 C8.29915528,10.3892795 7.82642236,10.4005714 7.66643478,10.5360745 C7.5062236,10.6700124 7.54591304,11.0933665 7.75568944,11.4754658 L9.37650932,14.4418509 C9.58609938,14.8238012 10.424236,14.7583975 10.6550683,14.3877391 C10.6550683,14.3877391 11.6320248,12.9463975 11.8116894,12.4061739 C11.9913168,11.8647205 11.6998137,11.3669441 11.283764,11.2472795 L11.283764,11.2472795 Z M11.9092174,7.07619876 C11.7935404,6.70095652 10.9905466,5.5946087 10.5557143,5.21750311 C10.1212547,4.83957764 9.6243354,4.8869441 9.34412422,5.21873292 L7.68901863,7.19038509 C7.40865839,7.52213665 7.33367702,8.04834783 7.52064596,8.3577764 C7.70746584,8.66720497 8.20591304,8.84250932 8.62889441,8.7475528 L11.4917516,8.2167205 C12.0085342,8.09273292 12.026795,7.45144099 11.9092174,7.07619876 L11.9092174,7.07619876 Z" id="Yelp"></path>
                            </g>
                        </g>
                    </g>
                </g>
            </g>
        </g>
    </g>
</svg>