<?xml version="1.0" encoding="UTF-8"?>
<svg width="64px" height="34px" viewBox="0 0 64 34" version="1.1" xmlns="http://www.w3.org/2000/svg" xmlns:xlink="http://www.w3.org/1999/xlink">
    <!-- Generator: Sketch 40.3 (33839) - http://www.bohemiancoding.com/sketch -->
    <title>icon-yelp</title>
    <desc>Created with Sketch.</desc>
    <defs></defs>
    <g id="Page-1" stroke="none" stroke-width="1" fill="none" fill-rule="evenodd">
        <g id="Rise" transform="translate(-298.000000, -3195.000000)">
            <g id="Group-Copy" transform="translate(287.000000, 3192.000000)">
                <g id="icon-yelp">
                    <g id="yelpr" transform="translate(11.000000, 3.000000)">
                        <path d="M6.34907527,25.7239794 L6.39483871,25.7239794 L8.43870968,18.2681649 C8.66855914,17.4353402 9.15131183,16.5948041 10.0466237,16.8044124 C11.2282151,17.0806186 11.2282151,17.5503093 11.2282151,17.9558557 C11.2282151,18.2257526 11.1363441,18.5643505 10.9753118,18.9923299 L7.63526882,30.1162887 C6.83148387,32.368 5.91243011,33.5397732 3.79939785,33.5397732 C2.30675269,33.5397732 1.68636559,32.8198144 1.68636559,32.0304536 C1.68636559,31.1524124 2.68421505,30.7107629 3.57952688,30.7107629 L3.92430108,30.7107629 C4.36060215,30.7107629 4.89909677,30.4741649 5.152,29.4604742 L0.532301075,19.8623093 C0.256688172,19.074 0.119053763,18.7140206 0.119053763,18.3312577 C0.119053763,17.4300825 0.245677419,17.2173196 1.21944086,16.841567 C1.89901075,16.5800825 2.73582796,17.3371959 2.94227957,18.0813402 L6.34907527,25.7239794" id="Fill-1" fill="#1A1918"></path>
                        <path d="M32.9582796,18.3505361 C32.9582796,17.3105567 33.4031828,16.7560412 34.3566452,16.7560412 C35.2677849,16.7560412 35.7553548,17.3105567 35.7553548,18.3505361 L35.7553548,18.882268 L35.7969892,18.882268 C36.3065806,17.4504124 37.5563011,16.7560412 39.0606452,16.7560412 C41.6447312,16.7560412 43.911914,18.8139175 43.911914,23.1813402 C43.911914,26.417299 42.4075699,29.4454021 39.1449462,29.4454021 C37.7255914,29.4454021 36.6658065,28.8200825 36.0946237,27.7345361 L36.051957,27.7345361 L36.051957,32.2407629 C36.051957,33.3508454 35.4374194,33.9284948 34.5049462,33.9284948 C33.5728172,33.9284948 32.9582796,33.3508454 32.9582796,32.2407629 L32.9582796,18.3505361 L32.9582796,18.3505361 Z M39.7367742,19.0817113 C37.868043,19.0817113 37.1647312,21.035134 37.1647312,23.1701237 C37.1647312,25.0979588 37.7803011,27.3605361 39.7367742,27.3342474 C41.779957,27.3342474 42.2861075,24.9184948 42.2861075,23.1701237 C42.2861075,20.9580206 41.4503226,19.1328866 39.7367742,19.0817113 L39.7367742,19.0817113 Z" id="Fill-2" fill="#1A1918"></path>
                        <path d="M26.3153548,14.337134 C26.3153548,13.2088247 26.9250753,12.6213608 27.8492903,12.6213608 C28.7735054,12.6213608 29.3828817,13.2088247 29.3828817,14.337134 L29.3828817,28.436268 C29.3828817,29.5642268 28.7735054,30.1520412 27.8492903,30.1520412 C26.9250753,30.1520412 26.3153548,29.5642268 26.3153548,28.436268 L26.3153548,14.337134" id="Fill-3" fill="#1A1918"></path>
                        <path d="M15.6449032,24.2143093 C15.6449032,26.0450515 16.6313978,27.3763093 18.3091613,27.3763093 C20.4806882,27.3763093 20.4806882,25.6640412 21.6454194,25.6640412 C22.3366882,25.6640412 22.8297634,26.3773402 22.8297634,27.0198351 C22.8297634,29.1127629 20.0467957,30.0875464 18.3091613,30.0875464 C14.2826667,30.0875464 12.7628387,26.8060206 12.7628387,23.7863299 C12.7628387,19.7438351 14.7956989,17.0336495 18.2107527,17.0336495 C21.5277419,17.0336495 23.4222796,19.8633608 23.4222796,22.7165567 C23.4222796,23.9044536 23.1260215,24.2143093 22.1587957,24.2143093 L15.6449032,24.2143093 L15.6449032,24.2143093 Z M20.3908817,22.3418557 C20.2222796,20.569299 19.1624946,19.2709897 17.7864946,19.2709897 C16.239828,19.2709897 15.3083871,20.4623918 14.9691183,22.3418557 L20.3908817,22.3418557 L20.3908817,22.3418557 Z" id="Fill-4" fill="#1A1918"></path>
                        <path d="M56.3461505,15.8261237 C55.9366882,16.2463918 56.2828387,17.010866 56.2828387,17.010866 L59.3630968,22.2503711 C59.3630968,22.2503711 59.8689032,22.9412371 60.3072688,22.9412371 C60.7473548,22.9412371 61.1822796,22.5728454 61.1822796,22.5728454 L63.6173763,19.0270309 C63.6173763,19.0270309 63.8627097,18.5797732 63.8682151,18.1878969 C63.8771613,17.6305773 63.0523871,17.4777526 63.0523871,17.4777526 L57.2868817,15.5916289 C57.2868817,15.5916289 56.7222366,15.4391546 56.3461505,15.8261237" id="Fill-6" fill="#B83A2B"></path>
                        <path d="M56.0536774,13.1849897 C56.3489032,13.6946392 57.1626667,13.5463711 57.1626667,13.5463711 L62.9150968,11.8334021 C62.9150968,11.8334021 63.6989247,11.5088247 63.8107527,11.0755876 C63.9208602,10.642701 63.6813763,10.1200825 63.6813763,10.1200825 L60.9324731,6.82138144 C60.9324731,6.82138144 60.6943656,6.40426804 60.199914,6.36220619 C59.6548817,6.31523711 59.3193978,6.98717526 59.3193978,6.98717526 L56.0691613,12.1972371 C56.0691613,12.1972371 55.7818495,12.7163505 56.0536774,13.1849897" id="Fill-7" fill="#B83A2B"></path>
                        <path d="M53.336086,11.1537526 C54.0135914,10.9837526 54.1209462,9.98127835 54.1209462,9.98127835 L54.0748387,1.63865979 C54.0748387,1.63865979 53.9726452,0.609546392 53.5187957,0.330536082 C52.8068817,-0.109360825 52.5956129,0.120226804 52.391914,0.151072165 L47.616,1.95868041 C47.616,1.95868041 47.148043,2.11641237 46.9044301,2.51389691 C46.5569032,3.07717526 47.2581505,3.90193814 47.2581505,3.90193814 L52.2222796,10.7944742 C52.2222796,10.7944742 52.711914,11.3107835 53.336086,11.1537526" id="Fill-8" fill="#B83A2B"></path>
                        <path d="M52.1565591,14.530268 C52.1737634,13.8863711 51.3981935,13.5001031 51.3981935,13.5001031 L46.2647742,10.858268 C46.2647742,10.858268 45.504,10.5385979 45.1347957,10.7611753 C44.851957,10.9315258 44.6011183,11.2396289 44.5766882,11.5123299 L44.2422366,15.7048454 C44.2422366,15.7048454 44.1923441,16.4311134 44.3771183,16.7616495 C44.6386237,17.2306392 45.499871,16.9043093 45.499871,16.9043093 L51.4928172,15.5548247 C51.7257634,15.3953402 52.1341935,15.3806186 52.1565591,14.530268" id="Fill-9" fill="#B83A2B"></path>
                        <path d="M53.6467957,16.7924948 C53.1323871,16.5236495 52.5168172,17.0806186 52.5168172,17.0806186 L48.504086,21.5808866 C48.504086,21.5808866 48.0034409,22.2689485 48.1307527,22.6916701 C48.2508387,23.0877526 48.4493763,23.2847423 48.7301505,23.4231959 L52.760086,24.7194021 C52.760086,24.7194021 53.2486882,24.8224536 53.6185806,24.7134433 C54.144,24.5585155 54.0469677,23.7207835 54.0469677,23.7207835 L54.1381505,17.6274227 C54.1381505,17.6274227 54.1175054,17.0406598 53.6467957,16.7924948" id="Fill-10" fill="#B83A2B"></path>
                    </g>
                </g>
            </g>
        </g>
    </g>
</svg>