<?xml version="1.0" encoding="UTF-8"?>
<svg width="109px" height="14px" viewBox="0 0 109 14" version="1.1" xmlns="http://www.w3.org/2000/svg" xmlns:xlink="http://www.w3.org/1999/xlink">
    <!-- Generator: Sketch 41 (35326) - http://www.bohemiancoding.com/sketch -->
    <title>icon-foursquare</title>
    <desc>Created with Sketch.</desc>
    <defs></defs>
    <g id="Page-1" stroke="none" stroke-width="1" fill="none" fill-rule="evenodd">
        <g id="Rise-mobile" transform="translate(-134.000000, -3506.000000)" fill="#012CA5">
            <g id="Group-14" transform="translate(87.000000, 3493.000000)">
                <g id="icon-foursquare" transform="translate(36.000000, 0.000000)">
                    <g id="foursquare-wordmark-white" transform="translate(11.000000, 13.000000)">
                        <path d="M31.3325621,0.336 L28.7291812,0.336 C28.5475755,0.336 28.4001695,0.475066667 28.4001695,0.657813333 L28.4001695,7.44650667 C28.4001695,8.5484 27.9572198,9.13453333 26.9595772,9.13453333 C25.9613859,9.13453333 25.5184362,8.5484 25.5184362,7.44650667 L25.5184362,0.657813333 C25.5184362,0.471706667 25.4044983,0.336 25.1939966,0.336 L22.5880554,0.336 C22.4128507,0.336 22.261604,0.470586667 22.261604,0.657813333 L22.261604,8.11552 C22.261604,10.4212267 23.8987987,12.2752 26.9272064,12.2752 C29.9881678,12.2752 31.6582819,10.4212267 31.6582819,8.11552 L31.6582819,0.657813333 C31.6582819,0.484213333 31.5103272,0.336 31.3325621,0.336" id="Fill-1"></path>
                        <path d="M50.1913909,5.09077333 L48.3080319,4.42176 C47.7526074,4.22109333 47.685854,3.90357333 47.685854,3.71952 C47.685854,3.41917333 47.9645721,3.11901333 48.521094,3.11901333 C49.1260805,3.11901333 49.9964346,3.28981333 50.8472198,3.95957333 C50.9670101,4.05496 51.1352651,4.04058667 51.2285369,3.91832 L52.690344,2.03466667 C52.7836158,1.91296 52.7715453,1.72946667 52.6554128,1.62941333 C51.4123372,0.55216 49.8824966,0.177706667 48.4715319,0.177333333 C45.7531158,0.177333333 44.133844,1.89821333 44.133844,3.77010667 C44.133844,5.23992 44.9678037,6.594 46.7540503,7.21168 L48.4228842,7.79725333 C49.2412987,8.08098667 49.3733423,8.29864 49.3733423,8.64957333 C49.3733423,8.96709333 49.0450621,9.33389333 48.3905134,9.33389333 C47.4656594,9.33389333 46.3802315,8.76698667 45.6490537,8.14856 C45.5318238,8.04925333 45.3681409,8.064 45.2763322,8.18645333 L43.7755705,10.1983467 C43.683396,10.3204267 43.6982097,10.5076533 43.8117819,10.60808 C44.8961124,11.56736 46.5071544,12.2766933 48.5379195,12.2766933 C51.0915554,12.2766933 52.9421779,10.7717867 52.9421779,8.50024 C52.9421779,6.94493333 51.9922685,5.72450667 50.1913909,5.09077333" id="Fill-2"></path>
                        <path d="M38.259,5.32802667 L36.5587097,5.32802667 L36.5587097,3.29205333 L38.259,3.29205333 C39.207995,3.29205333 39.5832768,3.72568 39.5832768,4.30976 C39.5832768,4.89365333 39.207995,5.32802667 38.259,5.32802667 L38.259,5.32802667 Z M40.8431779,7.68096 C42.2323792,6.97965333 42.9514866,5.87869333 42.9514866,4.24256 C42.9514866,2.17336 41.317401,0.336 38.5543607,0.336 L33.5692567,0.336 C33.4055738,0.336 33.2727987,0.506986667 33.2727987,0.67424 L33.2727987,11.7489867 C33.2727987,11.9164267 33.4055738,12.05176 33.5692567,12.05176 L36.2620688,12.05176 C36.4253859,12.05176 36.5587097,11.9164267 36.5587097,11.7489867 L36.5587097,8.16554667 L37.6223742,8.16554667 L39.5251191,11.7855733 C39.6026628,11.93304 39.7987164,12.05176 39.9620336,12.05176 L43.0480503,12.05176 C43.2115503,12.05176 43.2779379,11.9345333 43.1956393,11.7898667 L40.8431779,7.68096 L40.8431779,7.68096 Z" id="Fill-3"></path>
                        <path d="M8.29844799,0.336 L0.479892617,0.336 C0.243969799,0.336 0.11302349,0.517626667 0.11302349,0.683573333 L0.11302349,11.7094133 C0.11302349,11.89216 0.247444631,12.05176 0.439840604,12.05176 L3.07467785,12.05176 C3.23689765,12.05176 3.36894128,11.87368 3.36894128,11.7094133 L3.36894128,8.15042667 L6.71044966,8.15042667 C6.87266946,8.15042667 7.03232886,8.01845333 7.06506544,7.85586667 L7.56964765,5.41072 C7.60110403,5.26661333 7.52740101,5.10794667 7.3315302,5.10794667 L3.36894128,5.10794667 L3.36894128,3.33106667 L7.76679866,3.33106667 C7.93029866,3.33106667 8.08886074,3.19928 8.12287752,3.03762667 L8.60075839,0.73136 C8.64190772,0.52976 8.53290772,0.336 8.29844799,0.336" id="Fill-4"></path>
                        <path d="M108.058869,3.33032 C108.221089,3.33032 108.379651,3.19928 108.413485,3.03762667 L108.891732,0.729866667 C108.932881,0.52976 108.882039,0.336 108.609539,0.336 L100.749102,0.336 C100.526347,0.336 100.40418,0.517626667 100.40418,0.6832 L100.40418,11.7094133 C100.40418,11.89216 100.538235,12.05176 100.730631,12.05176 L107.883482,12.05176 C108.045884,12.05176 108.204081,11.92072 108.238097,11.7590667 L108.716344,9.45112 C108.758956,9.2512 108.706651,9.05688 108.435614,9.05688 L103.685153,9.05688 L103.685153,7.71456 L107.001057,7.71456 C107.163277,7.71456 107.323302,7.58202667 107.355856,7.42074667 L107.860804,4.97448 C107.892077,4.83149333 107.818191,4.67245333 107.622138,4.67245333 L103.685153,4.67245333 L103.685153,3.33032 L108.058869,3.33032" id="Fill-5"></path>
                        <path d="M82.4914195,6.98170667 L81.4301326,6.98170667 L82.4914195,3.39901333 L83.5552668,6.98170667 L82.4914195,6.98170667 L82.4914195,6.98170667 Z M84.6494732,0.604053333 C84.6057634,0.45584 84.446104,0.336 84.2963205,0.336 L80.7185235,0.336 C80.5672768,0.336 80.4087148,0.45584 80.3662852,0.604053333 L77.0706812,11.7648533 C77.026057,11.9119467 77.1118305,12.05176 77.2643574,12.05176 L80.2040654,12.05176 C80.3553121,12.05176 80.5114966,11.9119467 80.5524631,11.76392 L81.0184564,10.0786933 L83.9695034,10.0786933 L84.4764631,11.7648533 C84.5199899,11.9119467 84.6787349,12.05176 84.8297987,12.05176 L87.7528641,12.05176 C87.9028305,12.05176 87.9909815,11.9119467 87.9463574,11.7648533 L84.6494732,0.604053333 L84.6494732,0.604053333 Z" id="Fill-6"></path>
                        <path d="M76.155703,0.336 L73.5523221,0.336 C73.3708993,0.336 73.2242248,0.475066667 73.2242248,0.657813333 L73.2242248,7.44650667 C73.2242248,8.5484 72.7812752,9.13453333 71.7830839,9.13453333 C70.784344,9.13453333 70.3413943,8.5484 70.3413943,7.44650667 L70.3413943,0.657813333 C70.3413943,0.471706667 70.2274564,0.336 70.0182349,0.336 L67.4115621,0.336 C67.2359916,0.336 67.0845621,0.470586667 67.0845621,0.657813333 L67.0845621,8.11552 C67.0845621,10.4212267 68.7223054,12.2752 71.7501644,12.2752 C74.8120403,12.2752 76.481057,10.4212267 76.481057,8.11552 L76.481057,0.657813333 C76.481057,0.484213333 76.3338339,0.336 76.155703,0.336" id="Fill-7"></path>
                        <path d="M94.1105268,5.32802667 L92.4087735,5.32802667 L92.4087735,3.29205333 L94.1105268,3.29205333 C95.0580587,3.29205333 95.4331577,3.72568 95.4331577,4.30976 C95.4331577,4.89365333 95.0580587,5.32802667 94.1105268,5.32802667 L94.1105268,5.32802667 Z M96.6930587,7.68096 C98.0826258,6.97965333 98.8013674,5.87869333 98.8013674,4.24256 C98.8013674,2.17336 97.1678305,0.336 94.4046074,0.336 L89.4193205,0.336 C89.2560034,0.336 89.1226795,0.506986667 89.1226795,0.67424 L89.1226795,11.7489867 C89.1226795,11.9164267 89.2560034,12.05176 89.4193205,12.05176 L92.1121326,12.05176 C92.2758154,12.05176 92.4087735,11.9164267 92.4087735,11.7489867 L92.4087735,8.16554667 L93.4728037,8.16554667 L95.3751829,11.7855733 C95.4527265,11.93304 95.6487802,12.05176 95.8120973,12.05176 L98.8973826,12.05176 C99.0616141,12.05176 99.1283674,11.9345333 99.0446057,11.7898667 L96.6930587,7.68096 L96.6930587,7.68096 Z" id="Fill-8"></path>
                        <path d="M59.7501057,9.1896 C58.2506242,9.1896 57.2352416,7.86128 57.2352416,6.22477333 C57.2352416,4.58677333 58.2530017,3.25994667 59.7501057,3.25994667 C61.2461124,3.25994667 62.2638725,4.58677333 62.2638725,6.22477333 C62.2638725,7.86128 61.2486728,9.1896 59.7501057,9.1896 L59.7501057,9.1896 Z M65.7240738,10.60136 C65.3586678,10.7415467 64.6810755,10.9276533 63.8760117,10.7422933 L63.872354,10.7415467 C63.9888523,10.6370133 64.1011443,10.52968 64.209047,10.416 C65.75425,8.7416 66.1926275,6.23578667 65.4362114,4.10125333 C64.6519966,1.88813333 62.5811795,0.38528 60.2572483,0.193946667 C57.9276477,0.00242666667 55.5700654,1.16722667 54.4455,3.24258667 C53.2691779,5.41184 53.4893725,8.274 55.0905386,10.1738933 C56.4738876,11.8145067 58.6463893,12.4988267 60.680995,12.2093067 C60.7087936,12.2369333 60.7389698,12.2666133 60.7715235,12.2976 C61.8984664,13.38344 63.7308003,13.9867467 65.2935604,13.9867467 L65.938599,10.7831733 C65.9528641,10.66688 65.8692852,10.54592 65.7240738,10.60136 L65.7240738,10.60136 Z" id="Fill-9"></path>
                        <path d="M14.9271477,9.1896 C13.4285805,9.1896 12.4133809,7.86128 12.4133809,6.22477333 C12.4133809,4.58677333 13.4309581,3.25994667 14.9271477,3.25994667 C16.4231544,3.25994667 17.4409144,4.58677333 17.4409144,6.22477333 C17.4409144,7.86128 16.425349,9.1896 14.9271477,9.1896 L14.9271477,9.1896 Z M15.4342903,0.193946667 C13.105604,0.00242666667 10.7465587,1.16722667 9.62235906,3.24258667 C8.44585403,5.41184 8.66641443,8.274 10.2675805,10.1738933 C12.5465218,12.8779467 16.9676057,12.9878933 19.385906,10.416 C20.9312919,8.74234667 21.3696695,6.23578667 20.6130705,4.10125333 C19.8288557,1.88813333 17.7580386,0.38528 15.4342903,0.193946667 L15.4342903,0.193946667 Z" id="Fill-10"></path>
                    </g>
                </g>
            </g>
        </g>
    </g>
</svg>