<?xml version="1.0" encoding="UTF-8"?>
<svg width="10px" height="18px" viewBox="0 0 10 18" version="1.1" xmlns="http://www.w3.org/2000/svg" xmlns:xlink="http://www.w3.org/1999/xlink">
    <!-- Generator: Sketch 41 (35326) - http://www.bohemiancoding.com/sketch -->
    <title>icon-rightarrow</title>
    <desc>Created with Sketch.</desc>
    <defs></defs>
    <g id="Page-1" stroke="none" stroke-width="1" fill="none" fill-rule="evenodd">
        <g id="Rise-mobile" transform="translate(-339.000000, -640.000000)" fill="#000000">
            <g id="Group-30" transform="translate(0.000000, 608.000000)">
                <g id="Group">
                    <g id="icon-rightarrow" transform="translate(332.000000, 29.000000)">
                        <path d="M3.71794954,7.13082221 L11.698897,15.6040182 L11.9988097,15.9224289 L12.2987224,15.6040182 L20.2796698,7.13082221 C20.4441887,6.95620544 20.7108904,6.95620544 20.8776001,7.13194784 C21.0409699,7.30534867 21.0409699,7.58758543 20.8765784,7.76206699 L12.2975569,16.8682527 C12.2172207,16.9543846 12.1108771,17 11.9988097,17 C11.8873276,17 11.7826303,16.9549042 11.7064349,16.8720732 L3.1232936,7.76206699 C2.95890213,7.58758543 2.95890213,7.30534867 3.1232936,7.13086712 C3.28768507,6.95638556 3.55360038,6.95638556 3.71799185,7.13086712 L3.71794954,7.13082221 Z" id="Shape" transform="translate(12.000000, 12.000000) scale(-1, -1) rotate(-270.000000) translate(-12.000000, -12.000000) "></path>
                    </g>
                </g>
            </g>
        </g>
    </g>
</svg>