<?xml version="1.0" encoding="UTF-8" standalone="no"?>
<svg width="57px" height="627px" viewBox="0 0 57 627" version="1.1" xmlns="http://www.w3.org/2000/svg" xmlns:xlink="http://www.w3.org/1999/xlink" xmlns:sketch="http://www.bohemiancoding.com/sketch/ns">
    <!-- Generator: Sketch 3.4 (15588) - http://www.bohemiancoding.com/sketch -->
    <title>Group</title>
    <desc>Created with Sketch.</desc>
    <defs></defs>
    <g id="Page-1" stroke="none" stroke-width="1" fill="none" fill-rule="evenodd" sketch:type="MSPage">
        <g id="landing-1b_moreLite" sketch:type="MSArtboardGroup" transform="translate(-772.000000, -2896.000000)">
            <g id="comprehensive-+-A-website-that-helps-+-Line-Copy-3" sketch:type="MSLayerGroup" transform="translate(246.000000, 2642.000000)">
                <g id="comprehensive" transform="translate(0.000000, 210.000000)">
                    <g id="Group" transform="translate(524.000000, 45.000000)">
                        <g>
                            <text id="--------------------" sketch:type="MSTextLayer" transform="translate(28.000000, 315.500000) rotate(-90.000000) translate(-28.000000, -315.500000) " font-family="Avenir Next" font-size="40" font-weight="260" letter-spacing="5" fill="#333333">
                                <tspan x="-284" y="328">------------------------------------</tspan>
                                <tspan x="328" y="328">-</tspan>
                            </text>
                            <g id="Oval-227-+-noun_204643_cc-copy" transform="translate(3.000000, 0.000000)" sketch:type="MSShapeGroup">
                                <circle id="Oval-227" stroke="#333333" fill="#FFFFFF" cx="27.5" cy="27.5" r="27.5"></circle>
                                <g id="noun_4080_cc" transform="translate(12.500000, 16.000000)" fill="#333333">
                                    <path d="M29.0163,22.6287 C26.3121,22.6287 26.8851,19.9227 22.1292,19.9227 C17.3736,19.9227 16.0407,22.6287 14.9964,22.6287 C13.9521,22.6287 12.6189,19.9227 7.8633,19.9227 C3.1083,19.9227 3.6786,22.6287 0.9762,22.6287 C0.4776,22.6287 0,22.2729 0,21.6576 L0,3.8412 C0,3.8412 2.9031,0 7.863,0 C12.8238,0 15.036,2.7276 15.036,2.7276 C15.036,2.7276 17.1276,0 22.1292,0 C28.299,0 30,3.9348 30,3.9348 L30,21.645 C30,22.2594 29.5734,22.6287 29.0163,22.6287 L29.0163,22.6287 Z M28.524,4.4271 C28.524,4.4271 27.0483,1.4754 22.1292,1.4754 C17.0052,1.4754 16.1499,4.3977 15.036,4.3977 C13.9218,4.3977 13.2045,1.4754 7.863,1.4754 C3.7875,1.4754 1.4685,4.4271 1.4685,4.4271 L1.4685,20.661 C1.4685,20.9679 1.6527,21.153 1.9605,21.153 C1.9605,21.153 3.3048,18.4467 7.8633,18.4467 C12.8322,18.4467 15.0363,21.1011 15.0363,21.1011 C15.0363,21.1011 17.169,18.4467 22.1292,18.4467 C26.5983,18.4467 28.0326,21.153 28.0326,21.153 C28.3401,21.153 28.5249,20.9682 28.5249,20.661 L28.5249,4.4271 L28.524,4.4271 L28.524,4.4271 Z" id="Shape"></path>
                                    <rect id="Rectangle-path" x="14.5044" y="5.7798" width="0.984" height="11.5602"></rect>
                                </g>
                            </g>
                            <g id="Oval-227-+-noun_204643_cc-copy-2" transform="translate(3.000000, 142.000000)" sketch:type="MSShapeGroup">
                                <circle id="Oval-227" stroke="#333333" fill="#FFFFFF" cx="27.5" cy="27.5" r="27.5"></circle>
                                <g id="noun_204643_cc-copy" transform="translate(13.000000, 13.000000)" fill="#000000">
                                    <path d="M6.1125,28.35 L6.1125,23.2125 L4.2375,23.2125 C2.0625,23.2125 0.2625,21.4125 0.2625,19.2375 L0.2625,7.05 C0.2625,4.875 2.0625,3.075 4.2375,3.075 L16.5,3.075 C16.875,3.075 17.175,3.375 17.175,3.75 C17.175,4.125 16.875,4.425 16.5,4.425 L4.2375,4.425 C2.8125,4.425 1.65,5.5875 1.65,7.0125 L1.65,19.2 C1.65,20.625 2.8125,21.7875 4.2375,21.7875 L6.825,21.7875 C7.2,21.7875 7.5,22.0875 7.5,22.4625 L7.5,26.6625 L12.4125,21.9375 C12.525,21.825 12.7125,21.75 12.9,21.75 L24.225,21.75 C25.275,21.75 26.25,21.075 26.6625,20.1 C26.8125,19.7625 27.1875,19.575 27.5625,19.725 C27.9,19.875 28.0875,20.25 27.9375,20.625 C27.3375,22.125 25.8375,23.1375 24.225,23.1375 L13.2,23.1375 L7.3125,28.7625 C7.2,28.875 7.0125,28.95 6.825,28.95 C6.75,28.95 6.6375,28.95 6.5625,28.9125 C6.2625,28.875 6.1125,28.6125 6.1125,28.35 L6.1125,28.35 Z M29.7375,9.075 L29.7375,9.075 L29.7375,9.2625 L28.65,16.0125 C28.425,17.7375 27.1875,18.75 25.35,18.75 L25.05,18.75 L24.1125,18.75 L20.1375,18.75 L19.875,18.75 L17.325,18.75 C16.575,18.75 15.8625,18.45 15.375,17.9625 C15.15,18.15 14.85,18.2625 14.5125,18.2625 L11.8875,18.2625 C11.1375,18.2625 10.5375,17.6625 10.5375,16.9125 L10.5375,8.5125 C10.5375,7.7625 11.1375,7.1625 11.8875,7.1625 L14.5125,7.1625 C14.925,7.1625 15.2625,7.35 15.525,7.6125 L15.5625,7.6125 C15.675,7.575 18.525,6.75 18.525,4.35 L18.525,1.0875 C18.525,0.7875 18.7125,0.525 19.0125,0.45 C19.0875,0.4125 20.7375,-0.075 21.9375,0.825 C22.6875,1.3875 23.1,2.325 23.1,3.6375 L23.1,6.3375 L24.1125,6.3375 L26.2875,6.3375 L26.8875,6.3375 C28.5,6.2625 29.7375,7.5 29.7375,9.075 L29.7375,9.075 Z M14.55,8.475 L11.9625,8.475 L11.9625,16.875 L14.55,16.875 L14.55,8.475 L14.55,8.475 Z M28.3875,9.075 L28.3875,9.075 C28.3875,8.25 27.75,7.6125 26.925,7.6125 L26.325,7.6125 L24.15,7.6125 L22.4625,7.6125 C22.0875,7.6125 21.7875,7.3125 21.7875,6.9375 L21.7875,3.5625 C21.7875,2.7375 21.6,2.1375 21.1875,1.875 C20.8125,1.6125 20.325,1.575 19.9875,1.6125 L19.9875,4.3125 C19.9875,7.7625 16.2,8.85 16.05,8.8875 L16.0125,8.8875 L16.0125,15.9 C16.0125,16.6875 16.65,17.3625 17.475,17.3625 L20.025,17.3625 L20.2875,17.3625 L24.2625,17.3625 L25.2,17.3625 L25.5,17.3625 C27.2625,17.3625 27.4125,16.2 27.45,15.825 C27.45,15.825 27.45,15.825 27.45,15.7875 L28.3875,9.075 L28.3875,9.075 Z" id="Shape"></path>
                                </g>
                            </g>
                            <g id="Oval-227-+-noun_204643_cc-copy-3" transform="translate(3.000000, 284.000000)" sketch:type="MSShapeGroup">
                                <circle id="Oval-227" stroke="#333333" fill="#FFFFFF" cx="27.5" cy="27.5" r="27.5"></circle>
                                <g id="Imported-Layers" transform="translate(8.500000, 14.833333)" fill="#000000">
                                    <path d="M9.08187937,24.6527111 C6.71785714,24.6527111 4.78974921,22.8493397 4.78974921,20.3612444 L6.03379683,20.3612444 C6.03379683,22.2269841 7.40191746,23.4086635 9.08187937,23.4086635 C10.7611778,23.4086635 12.0675937,22.2269841 12.0675937,20.3612444 L13.3109778,20.3612444 C13.3109778,22.8493397 11.4452381,24.6527111 9.08187937,24.6527111 L9.08187937,24.6527111 Z" id="Fill-1"></path>
                                    <path d="M23.8857143,19.7388889 L0.248809524,19.7388889 L0.248809524,19.1165333 C0.248809524,14.9491397 2.23928571,12.3993397 3.6697746,11.0305556 L0.870501587,11.0305556 L0.870501587,6.67605714 L19.3447746,6.67605714 L18.2871683,11.0305556 L15.4261905,11.0305556 C15.301454,12.1498667 15.177381,14.9491397 17.2302254,16.4419968 L16.4837968,17.4372349 C13.3109778,15.0115079 14.2445111,10.4705683 14.3062159,10.284127 L14.4309524,9.78650794 L17.3542984,9.78650794 L17.7895492,7.92076825 L2.1152127,7.92076825 L2.1152127,9.78650794 L7.77546349,9.78650794 L5.72261905,10.9681873 C5.53617778,11.0305556 1.92810794,13.207473 1.67929841,18.4948413 L23.8857143,18.4948413 L23.8857143,19.7388889 Z" id="Fill-2"></path>
                                    <path d="M26.4335238,0.487003175 L30.0747683,14.3221397 L28.8725206,14.6379619 L25.2306127,0.803488889 L26.4335238,0.487003175 Z" id="Fill-3"></path>
                                    <path d="M21.397619,0.45648254 L25.751454,0.45648254 L25.751454,1.70053016 L21.397619,1.70053016 L21.397619,0.45648254 Z" id="Fill-4"></path>
                                    <path d="M26.9961651,7.2984127 L26.9961651,6.05436508 L28.7371683,6.05436508 C28.8619048,6.05436508 29.5459651,5.93029206 29.5459651,4.49913968 C29.5459651,3.06865079 28.8619048,2.94457778 28.7371683,2.94457778 L26.3738095,2.94457778 L26.3738095,1.69986667 L28.7371683,1.69986667 C28.7995365,1.69986667 29.4842603,1.69986667 30.0435841,2.25985397 C30.5412032,2.75747302 30.7900127,3.50390159 30.7900127,4.49913968 C30.7900127,5.49437778 30.5412032,6.24080635 30.0435841,6.7384254 C29.4842603,7.2984127 28.8619048,7.2984127 28.7371683,7.2984127 L26.9961651,7.2984127 Z" id="Fill-5"></path>
                                    <path d="M30.9147492,24.6527111 C28.550727,24.6527111 26.622619,22.8493397 26.622619,20.3612444 L27.8666667,20.3612444 C27.8666667,22.2269841 29.2347873,23.4086635 30.9147492,23.4086635 C32.5940476,23.4086635 33.9628317,22.2269841 33.9628317,20.3612444 L35.2062159,20.3612444 C35.2062159,22.8493397 33.2781079,24.6527111 30.9147492,24.6527111 L30.9147492,24.6527111 Z" id="Fill-6"></path>
                                    <path d="M6.46904762,12.2746032 L10.8228825,12.2746032 L10.8228825,13.5186508 L6.46904762,13.5186508 L6.46904762,12.2746032 Z" id="Fill-7"></path>
                                    <path d="M5.225,15.385054 L10.823546,15.385054 L10.823546,16.6291016 L5.225,16.6291016 L5.225,15.385054 Z" id="Fill-8"></path>
                                    <path d="M37.5078698,19.7388889 L23.6369048,19.7388889 L23.7609778,18.9924603 C23.7609778,18.9300921 24.6321429,14.0786381 30.9147492,14.0786381 C36.450927,14.0786381 37.3214286,18.9300921 37.3837968,18.9924603 L37.5078698,19.7388889 Z M25.2538349,18.4948413 L35.9533079,18.4948413 C35.5173937,17.3755302 34.273346,15.385054 30.9771175,15.385054 C27.1202381,15.385054 25.6897492,17.3755302 25.2538349,18.4948413 L25.2538349,18.4948413 Z" id="Fill-9"></path>
                                </g>
                            </g>
                            <g id="Oval-227-+-noun_204643_cc-copy-4" transform="translate(3.000000, 426.000000)" sketch:type="MSShapeGroup">
                                <circle id="Oval-227" stroke="#333333" fill="#FFFFFF" cx="27.5" cy="27.5" r="27.5"></circle>
                                <path d="M34.167987,36.2584958 L25,31.4395062 L25,14.9212798 C25,13.860351 25.8644029,13 26.9294707,13 C27.9962535,13 28.8606564,13.860351 28.8606564,14.9212798 L28.8606564,29.1230454 L35.9705414,32.8606216 C36.9138381,33.3556648 37.2748635,34.5173094 36.7749163,35.4570379 C36.4310417,36.1082758 35.761301,36.4804118 35.0684066,36.4804118 C34.7639791,36.4804118 34.4561213,36.4087158 34.167987,36.2584958 Z" id="Shape" stroke="#FFFFFF" fill="#333333"></path>
                            </g>
                            <g id="Oval-227-+-noun_204643_cc-copy-5" transform="translate(3.000000, 570.000000)" sketch:type="MSShapeGroup">
                                <circle id="Oval-227" stroke="#333333" fill="#FFFFFF" cx="27.5" cy="27.5" r="27.5"></circle>
                                <g id="noun_34253_cc" transform="translate(13.000000, 13.000000)" fill="#000000">
                                    <path d="M26.8101778,7.55066667 L24.6280889,7.19406897 C24.5372222,7.60988506 24.4212222,8.02666667 24.2842778,8.44216092 L26.6023444,8.82096552 C27.2448556,8.92588506 27.7111111,9.47429885 27.7111111,10.1247356 L27.7111111,25.9804598 C27.7111111,26.0995402 27.6695444,26.1854713 27.5757778,26.2594943 C27.5074667,26.3132414 27.4410889,26.338023 27.3660111,26.338023 C27.3366889,26.338023 27.3054333,26.3341609 27.2728889,26.3264368 L19.9777778,24.5981609 L19.9777778,15.8441379 C19.9223556,15.9130115 19.8669333,15.9825287 19.8124778,16.0494713 L18.6888889,17.4295172 L18.6888889,24.5901149 L10.3111111,26.4429425 L10.3111111,8.92491954 L12.3685,8.6297931 C12.2270444,8.2188046 12.1039556,7.80137931 12.0050333,7.38170115 L9.72273333,7.70901149 L2.14857778,5.27783908 C1.64301111,5.11498851 1.10522222,5.20188506 0.676344444,5.51406897 C0.240055556,5.83172414 0,6.30321839 0,6.84197701 L0,22.2731954 C0,23.3574713 0.625111111,24.284046 1.63173333,24.6911724 L9.425,27.8413333 C9.42918889,27.8429425 9.43337778,27.8435862 9.43756667,27.8451954 C9.46334444,27.8548506 9.48976667,27.8622529 9.51651111,27.8683678 C9.52811111,27.8712644 9.53971111,27.8751264 9.55131111,27.8773793 C9.58933333,27.8841379 9.628,27.8883218 9.66666667,27.8883218 C9.71306667,27.8883218 9.75978889,27.8831724 9.80586667,27.8731954 L19.3281778,25.7670805 L26.9751556,27.5793563 C27.1046889,27.6102529 27.2364778,27.6257011 27.3656889,27.6257011 C27.7307667,27.6257011 28.0800556,27.5024368 28.3745667,27.2697471 C28.7776667,26.952092 28.9996778,26.4941149 28.9996778,25.9807816 L28.9996778,10.1247356 C29,8.84027586 28.0790889,7.7576092 26.8101778,7.55066667 L26.8101778,7.55066667 Z M9.02222222,26.290069 L2.11538889,23.4981149 C1.5979,23.2885977 1.28888889,22.8306207 1.28888889,22.2731954 L1.28888889,6.84197701 C1.28888889,6.7183908 1.33528889,6.62731034 1.43517778,6.55457471 C1.50091111,6.50694253 1.56664444,6.48344828 1.63624444,6.48344828 C1.6733,6.48344828 1.71293333,6.4902069 1.75417778,6.5034023 L9.02222222,8.83641379 L9.02222222,26.290069 L9.02222222,26.290069 Z" id="Shape"></path>
                                    <path d="M18.2944889,15.4601839 L18.2944889,15.4601839 C18.1001889,15.4601839 17.9168444,15.3729655 17.7944,15.2226667 C15.5143556,12.4217011 10.6239889,5.4954023 14.4445778,1.67967816 C15.4727889,0.652367816 16.8403,0.0868965517 18.2944889,0.0868965517 C19.7486778,0.0868965517 21.1158667,0.652367816 22.1440778,1.67967816 C25.9649889,5.49604598 21.0743,12.422023 18.7942556,15.2226667 C18.6721333,15.3729655 18.4884667,15.4601839 18.2944889,15.4601839 L18.2944889,15.4601839 Z M18.2948111,1.37425287 C17.1847556,1.37425287 16.1407556,1.80583908 15.3561444,2.58983908 C12.4722556,5.47029885 16.3650222,11.2775632 18.2944889,13.7792184 C20.2242778,11.2775632 24.1170444,5.47094253 21.2331556,2.58983908 C20.4485444,1.80583908 19.4048667,1.37425287 18.2948111,1.37425287 L18.2948111,1.37425287 Z M18.2944889,8.38970115 C17.5131,8.38970115 16.7790778,8.08588506 16.2267889,7.53425287 C15.0867667,6.39558621 15.0867667,4.54275862 16.2267889,3.40409195 C16.7790778,2.85245977 17.5131,2.54864368 18.2944889,2.54864368 C19.0758778,2.54864368 19.8099,2.85245977 20.3621889,3.40409195 C20.9148,3.95572414 21.2186556,4.6891954 21.2186556,5.46933333 C21.2186556,6.24947126 20.9148,6.98294253 20.3621889,7.53457471 C19.8099,8.08588506 19.0758778,8.38970115 18.2944889,8.38970115 L18.2944889,8.38970115 Z M18.2944889,3.83567816 C17.8578778,3.83567816 17.4470444,4.0056092 17.1380333,4.31393103 C16.5003556,4.95085057 16.5003556,5.98717241 17.1380333,6.62377011 C17.4470444,6.93209195 17.8575556,7.10202299 18.2944889,7.10202299 C18.7314222,7.10202299 19.1419333,6.93209195 19.4509444,6.62377011 C19.7599556,6.31512644 19.9297667,5.90510345 19.9297667,5.46901149 C19.9297667,5.03291954 19.7599556,4.62257471 19.4509444,4.31425287 C19.1419333,4.0056092 18.7314222,3.83567816 18.2944889,3.83567816 L18.2944889,3.83567816 Z" id="Shape"></path>
                                </g>
                            </g>
                        </g>
                    </g>
                </g>
            </g>
        </g>
    </g>
</svg>