<?xml version="1.0" encoding="UTF-8" standalone="no"?>
<svg width="210px" height="46px" viewBox="0 0 210 46" version="1.1" xmlns="http://www.w3.org/2000/svg" xmlns:xlink="http://www.w3.org/1999/xlink" xmlns:sketch="http://www.bohemiancoding.com/sketch/ns">
    <!-- Generator: Sketch 3.4 (15588) - http://www.bohemiancoding.com/sketch -->
    <title>LOGO BLACK + CANVAS</title>
    <desc>Created with Sketch.</desc>
    <defs></defs>
    <g id="Page-1" stroke="none" stroke-width="1" fill="none" fill-rule="evenodd" sketch:type="MSPage">
        <g id="landing-1b_moreLite" sketch:type="MSArtboardGroup" transform="translate(-129.000000, -33.000000)" fill="#333333">
            <g id="tobar" sketch:type="MSLayerGroup" transform="translate(1.000000, 0.000000)">
                <g id="LOGO-BLACK-+-CANVAS" transform="translate(128.000000, 28.000000)" sketch:type="MSShapeGroup">
                    <g id="LOGO-BLACK" transform="translate(0.000000, 5.000000)">
                        <path d="M7.32495868,15.301664 C6.84210744,15.301664 6.45086777,15.6932857 6.45086777,16.1764844 L6.45086777,19.870212 C6.45086777,20.3534107 6.84210744,20.7451565 7.32495868,20.7451565 L8.89078512,20.7451565 C9.37326446,20.7451565 9.76487603,20.3534107 9.76487603,19.870212 L9.76487603,19.4936049 C9.76487603,19.0104062 10.1561157,18.6187845 10.638843,18.6187845 L20.0223967,18.6187845 C20.504876,18.6187845 20.8963636,19.0104062 20.8963636,19.4936049 L20.8963636,28.4609486 C20.8963636,28.9441473 20.504876,29.3358931 20.0223967,29.3358931 L17.9466942,29.3358931 C17.463843,29.3358931 17.0726033,29.7276389 17.0726033,30.2108376 L17.0726033,31.7781932 C17.0726033,32.2613919 17.463843,32.6531377 17.9466942,32.6531377 L27.1601653,32.6531377 C27.6426446,32.6531377 28.0342562,32.2613919 28.0342562,31.7781932 L28.0342562,30.2108376 C28.0342562,29.7276389 27.6426446,29.3358931 27.1601653,29.3358931 L25.0844628,29.3358931 C24.6016116,29.3358931 24.2103719,28.9441473 24.2103719,28.4609486 L24.2103719,19.4936049 C24.2103719,19.0104062 24.6016116,18.6187845 25.0844628,18.6187845 L34.4678926,18.6187845 C34.9504959,18.6187845 35.3419835,19.0104062 35.3419835,19.4936049 L35.3419835,19.870212 C35.3419835,20.3534107 35.7332231,20.7451565 36.2160744,20.7451565 L37.7817769,20.7451565 C38.2646281,20.7451565 38.6558678,20.3534107 38.6558678,19.870212 L38.6558678,16.1764844 C38.6558678,15.6932857 38.2646281,15.301664 37.7817769,15.301664 L35.3419835,15.301664 L7.32495868,15.301664 Z" id="Fill-13"></path>
                        <path d="M4.78090909,42.0504463 L40.2052066,42.0504463 C41.163595,42.0504463 41.9404959,41.2727868 41.9404959,40.3134624 L41.9404959,4.85457088 C41.9404959,3.89524652 41.163595,3.117587 40.2052066,3.117587 L4.78090909,3.117587 C3.82239669,3.117587 3.04561983,3.89524652 3.04561983,4.85457088 L3.04561983,40.3134624 C3.04561983,41.2727868 3.82239669,42.0504463 4.78090909,42.0504463 M43.2507025,45.0989163 L1.73528926,45.0989163 C0.777024793,45.0989163 0,44.3212568 0,43.3619324 L0,1.80610089 C0,0.846776537 0.777024793,0.069117018 1.73528926,0.069117018 L43.2507025,0.069117018 C44.2089669,0.069117018 44.9859917,0.846776537 44.9859917,1.80610089 L44.9859917,43.3619324 C44.9859917,44.3212568 44.2089669,45.0989163 43.2507025,45.0989163" id="Fill-15"></path>
                    </g>
                    <g id="Group" transform="translate(60.000000, 23.000000)">
                        <path d="M5.35306748,10.8670785 L2.59003067,10.8670785 L2.59003067,2.78940813 L0.305981595,2.78940813 L0.305981595,0.50846951 L7.63711656,0.50846951 L7.63711656,2.78940813 L5.35306748,2.78940813 L5.35306748,10.8670785" id="Fill-17"></path>
                        <path d="M19.4769939,3.70949582 L19.4493865,3.70949582 L18.3069018,7.00692507 L20.6047546,7.00692507 L19.4769939,3.70949582 L19.4769939,3.70949582 Z M17.5458589,9.06770626 L16.8128834,10.8670785 L13.8805215,10.8670785 L17.9687117,0.50846951 L20.9852761,0.50846951 L24.9892638,10.8670785 L22.0430982,10.8670785 L21.3519939,9.06770626 L17.5458589,9.06770626 L17.5458589,9.06770626 Z" id="Fill-18"></path>
                        <path d="M35.6590491,8.80674572 L36.0115031,8.80674572 C36.8291411,8.80674572 38.2104294,8.84754882 38.2104294,7.70730371 C38.2104294,6.45720407 36.8429448,6.58095855 35.9406442,6.58095855 L35.6590491,6.58095855 L35.6590491,8.80674572 L35.6590491,8.80674572 Z M35.6590491,4.57488043 L35.9691718,4.57488043 C36.7021472,4.57488043 37.4636503,4.45157433 37.4636503,3.57228976 C37.4636503,2.62440215 36.603681,2.5692507 35.8564417,2.5692507 L35.6590491,2.5692507 L35.6590491,4.57488043 L35.6590491,4.57488043 Z M32.8955521,10.8670785 L32.8955521,0.50846951 L36.8429448,0.50846951 C38.7322086,0.50846951 40.001227,1.22319649 40.001227,3.20147469 C40.001227,4.13546234 39.6911043,4.89099243 38.831135,5.31651056 L38.831135,5.34431048 C40.3532209,5.536668 41.0019939,6.53970705 41.0019939,7.98216421 C41.0019939,10.1527999 39.0989264,10.8670785 37.1530675,10.8670785 L32.8955521,10.8670785 L32.8955521,10.8670785 Z" id="Fill-19"></path>
                        <path d="M52.2496933,8.58658828 L55.5625767,8.58658828 L55.5625767,10.8670785 L49.4861963,10.8670785 L49.4861963,0.50846951 L52.2496933,0.50846951 L52.2496933,8.58658828" id="Fill-20"></path>
                        <path d="M66.2608896,2.78940813 L66.2608896,4.52017736 L69.3759202,4.52017736 L69.3759202,6.8006676 L66.2608896,6.8006676 L66.2608896,8.58658828 L69.5457055,8.58658828 L69.5457055,10.8670785 L63.4973926,10.8670785 L63.4973926,0.50846951 L69.5457055,0.50846951 L69.5457055,2.78940813 L66.2608896,2.78940813" id="Fill-21"></path>
                        <path d="M95.5389571,4.5062774 L95.5389571,0.50846951 L98.3019939,0.50846951 L98.3019939,10.8670785 L95.5389571,10.8670785 L95.5389571,6.62221004 L91.548773,6.62221004 L91.548773,10.8670785 L88.7857362,10.8670785 L88.7857362,0.50846951 L91.548773,0.50846951 L91.548773,4.5062774 L95.5389571,4.5062774" id="Fill-22"></path>
                        <path d="M109.915951,2.78940813 L109.915951,4.52017736 L113.030982,4.52017736 L113.030982,6.8006676 L109.915951,6.8006676 L109.915951,8.58658828 L113.200307,8.58658828 L113.200307,10.8670785 L107.152454,10.8670785 L107.152454,0.50846951 L113.200307,0.50846951 L113.200307,2.78940813 L109.915951,2.78940813" id="Fill-23"></path>
                        <path d="M124.716258,5.15195297 L124.984049,5.15195297 C125.88635,5.15195297 126.90138,4.98739538 126.90138,3.86060183 C126.90138,2.73425668 125.88635,2.5692507 124.984049,2.5692507 L124.716258,2.5692507 L124.716258,5.15195297 L124.716258,5.15195297 Z M130.792178,10.8670785 L127.352301,10.8670785 L124.743865,6.88317059 L124.716258,6.88317059 L124.716258,10.8670785 L121.952761,10.8670785 L121.952761,0.50846951 L126.083282,0.50846951 C128.184202,0.50846951 129.777147,1.48415703 129.777147,3.69559585 C129.777147,5.12460143 128.959049,6.3612495 127.450767,6.62221004 L130.792178,10.8670785 L130.792178,10.8670785 Z" id="Fill-24"></path>
                        <path d="M140.92546,5.50931646 C140.92546,7.29523715 142.279141,8.60048824 143.928681,8.60048824 C145.578221,8.60048824 146.931442,7.29523715 146.931442,5.50931646 C146.931442,4.08075927 145.578221,2.77505978 143.928681,2.77505978 C142.279141,2.77505978 140.92546,4.08075927 140.92546,5.50931646 L140.92546,5.50931646 Z M149.807209,5.4954165 C149.807209,8.84754882 147.340491,11.210542 143.928681,11.210542 C140.516871,11.210542 138.049693,8.84754882 138.049693,5.4954165 C138.049693,2.36344161 140.869325,0.165005978 143.928681,0.165005978 C146.988037,0.165005978 149.807209,2.36344161 149.807209,5.4954165 L149.807209,5.4954165 Z" id="Fill-25"></path>
                    </g>
                </g>
            </g>
        </g>
    </g>
</svg>