<?xml version="1.0" encoding="UTF-8" standalone="no"?>
<svg width="57px" height="57px" viewBox="0 0 57 57" version="1.1" xmlns="http://www.w3.org/2000/svg" xmlns:xlink="http://www.w3.org/1999/xlink" xmlns:sketch="http://www.bohemiancoding.com/sketch/ns">
    <!-- Generator: Sketch 3.4 (15588) - http://www.bohemiancoding.com/sketch -->
    <title>Oval 227 + noun_204643_cc copy</title>
    <desc>Created with Sketch.</desc>
    <defs></defs>
    <g id="Page-1" stroke="none" stroke-width="1" fill="none" fill-rule="evenodd" sketch:type="MSPage">
        <g id="landing-1b_moreLite" sketch:type="MSArtboardGroup" transform="translate(-772.000000, -2886.000000)">
            <g id="comprehensive-+-A-website-that-helps-+-Line-Copy-3" sketch:type="MSLayerGroup" transform="translate(0.000000, 2642.000000)">
                <g id="comprehensive" transform="translate(0.000000, 140.000000)" sketch:type="MSShapeGroup">
                    <g id="Group" transform="translate(770.000000, 115.000000)">
                        <g id="Oval-227-+-noun_204643_cc-copy" transform="translate(3.000000, -10.000000)">
                            <circle id="Oval-227" stroke="#333333" fill="#FFFFFF" cx="27.5" cy="27.5" r="27.5"></circle>
                            <g id="noun_4080_cc" transform="translate(12.500000, 16.000000)" fill="#333333">
                                <path d="M29.0163,22.6287 C26.3121,22.6287 26.8851,19.9227 22.1292,19.9227 C17.3736,19.9227 16.0407,22.6287 14.9964,22.6287 C13.9521,22.6287 12.6189,19.9227 7.8633,19.9227 C3.1083,19.9227 3.6786,22.6287 0.9762,22.6287 C0.4776,22.6287 0,22.2729 0,21.6576 L0,3.8412 C0,3.8412 2.9031,0 7.863,0 C12.8238,0 15.036,2.7276 15.036,2.7276 C15.036,2.7276 17.1276,0 22.1292,0 C28.299,0 30,3.9348 30,3.9348 L30,21.645 C30,22.2594 29.5734,22.6287 29.0163,22.6287 L29.0163,22.6287 Z M28.524,4.4271 C28.524,4.4271 27.0483,1.4754 22.1292,1.4754 C17.0052,1.4754 16.1499,4.3977 15.036,4.3977 C13.9218,4.3977 13.2045,1.4754 7.863,1.4754 C3.7875,1.4754 1.4685,4.4271 1.4685,4.4271 L1.4685,20.661 C1.4685,20.9679 1.6527,21.153 1.9605,21.153 C1.9605,21.153 3.3048,18.4467 7.8633,18.4467 C12.8322,18.4467 15.0363,21.1011 15.0363,21.1011 C15.0363,21.1011 17.169,18.4467 22.1292,18.4467 C26.5983,18.4467 28.0326,21.153 28.0326,21.153 C28.3401,21.153 28.5249,20.9682 28.5249,20.661 L28.5249,4.4271 L28.524,4.4271 L28.524,4.4271 Z" id="Shape"></path>
                                <rect id="Rectangle-path" x="14.5044" y="5.7798" width="0.984" height="11.5602"></rect>
                            </g>
                        </g>
                    </g>
                </g>
            </g>
        </g>
    </g>
</svg>