<?xml version="1.0" encoding="UTF-8"?>
<svg width="47px" height="33px" viewBox="0 0 47 33" version="1.1" xmlns="http://www.w3.org/2000/svg" xmlns:xlink="http://www.w3.org/1999/xlink">
    <!-- Generator: Sketch 40.3 (33839) - http://www.bohemiancoding.com/sketch -->
    <title>Group 25</title>
    <desc>Created with Sketch.</desc>
    <defs></defs>
    <g id="Page-1" stroke="none" stroke-width="1" fill="none" fill-rule="evenodd">
        <g id="Rise" transform="translate(-227.000000, -2668.000000)">
            <g id="Group-25" transform="translate(226.000000, 2659.000000)">
                <rect id="Rectangle-12" fill="#D8D8D8" opacity="0" x="0" y="0" width="49.0196078" height="50"></rect>
                <g id="Group-23" transform="translate(1.000000, 9.000000)" fill="#F5A623">
                    <path d="M22.0338458,0.52 L11.2338458,0.52 L4.03384579,12.52 C0.553845787,18.4 0.433845787,19.84 0.433845787,22.48 C0.433845787,28.24 5.23384579,32.8 11.2338458,32.8 C17.2338458,32.8 22.0338458,28.24 22.0338458,22.48 C22.0338458,18.76 19.9938458,15.64 15.7938458,13.84 L22.0338458,0.52 Z" id="Path"></path>
                    <path d="M46.8738458,0.52 L36.0738458,0.52 L28.8738458,12.52 C25.3938458,18.4 25.1538458,19.84 25.1538458,22.48 C25.1538458,28.24 30.0738458,32.8 36.0738458,32.8 C41.9538458,32.8 46.7538458,28.24 46.7538458,22.48 C46.7538458,18.76 44.8338458,15.64 40.6338458,13.84 L46.8738458,0.52 Z" id="Path"></path>
                </g>
            </g>
        </g>
    </g>
</svg>