<?xml version="1.0" encoding="UTF-8"?>
<svg width="32px" height="32px" viewBox="0 0 32 32" version="1.1" xmlns="http://www.w3.org/2000/svg" xmlns:xlink="http://www.w3.org/1999/xlink">
    <!-- Generator: Sketch 40.3 (33839) - http://www.bohemiancoding.com/sketch -->
    <title>twitter-filled</title>
    <desc>Created with Sketch.</desc>
    <defs>
        <rect id="path-1" x="0" y="0" width="32" height="32"></rect>
        <mask id="mask-2" maskContentUnits="userSpaceOnUse" maskUnits="objectBoundingBox" x="0" y="0" width="32" height="32" fill="white">
            <use xlink:href="#path-1"></use>
        </mask>
    </defs>
    <g id="Page-1" stroke="none" stroke-width="1" fill="none" fill-rule="evenodd">
        <g id="Rise" transform="translate(-1086.000000, -3805.000000)">
            <g id="twitter-filled" transform="translate(1086.000000, 3805.000000)">
                <use id="Rectangle-16" stroke="#000000" mask="url(#mask-2)" stroke-width="2" fill="#000000" xlink:href="#path-1"></use>
                <path d="M24,11.4639229 C23.4477717,11.7122109 22.8547826,11.8799417 22.2322826,11.9555364 C22.8678261,11.5691269 23.3558152,10.9572567 23.5857065,10.2282727 C22.9907609,10.5859 22.3322283,10.845767 21.6313043,10.9858735 C21.0699457,10.3789658 20.2700543,10 19.3850543,10 C17.6854891,10 16.3076087,11.3977569 16.3076087,13.1220431 C16.3076087,13.3666919 16.3346739,13.6050549 16.3871739,13.8334931 C13.829837,13.7034769 11.5615761,12.460383 10.0441304,10.5713435 C9.77918478,11.0325206 9.62722826,11.568796 9.62722826,12.1409666 C9.62722826,13.2241042 10.1704891,14.1795413 10.9963043,14.7396366 C10.4921739,14.7235913 10.0173913,14.5833194 9.60244565,14.3494225 C9.60211957,14.3623249 9.60211957,14.3752273 9.60211957,14.3884605 C9.60211957,15.9013462 10.6632065,17.1632974 12.0707609,17.4499617 C11.8128261,17.5214209 11.5408696,17.5596318 11.2599457,17.5596318 C11.0618478,17.5596318 10.8691304,17.5401128 10.6809783,17.5035561 C11.0726087,18.7438379 12.2095109,19.6466731 13.5559239,19.6718162 C12.5025,20.5093125 11.1758152,21.008535 9.73402174,21.008535 C9.48554348,21.008535 9.24065217,20.9936476 9,20.9643692 C10.3615761,21.8504974 11.9789674,22.3677502 13.717337,22.3677502 C19.3777174,22.3677502 22.4732609,17.609918 22.4732609,13.4838057 C22.4732609,13.3488271 22.4704891,13.2141792 22.4644565,13.0798623 C23.0655978,12.6400237 23.5871739,12.0901842 24,11.4639229" id="Imported-Layers" fill="#FFFFFF"></path>
            </g>
        </g>
    </g>
</svg>